<svg id="Layer_1" data-name="Layer 1" xmlns="http://www.w3.org/2000/svg" xmlns:xlink="http://www.w3.org/1999/xlink" viewBox="0 0 864 392"><defs><style>.cls-1,.cls-12,.cls-4,.cls-58,.cls-6{fill:none;}.cls-2{clip-path:url(#clip-path);}.cls-3{fill:#fff;}.cls-4,.cls-6{stroke:#5e5e5e;}.cls-5{clip-path:url(#clip-path-3);}.cls-6{stroke-width:0.75px;}.cls-7{clip-path:url(#clip-path-5);}.cls-8{clip-path:url(#clip-path-7);}.cls-9{clip-path:url(#clip-path-9);}.cls-10{clip-path:url(#clip-path-11);}.cls-11{clip-path:url(#clip-path-13);}.cls-12,.cls-58{stroke:#000;}.cls-13{fill:#d5d5d5;}.cls-14{clip-path:url(#clip-path-15);}.cls-15{clip-path:url(#clip-path-17);}.cls-16{clip-path:url(#clip-path-19);}.cls-17{clip-path:url(#clip-path-21);}.cls-18{clip-path:url(#clip-path-23);}.cls-19{clip-path:url(#clip-path-25);}.cls-20{clip-path:url(#clip-path-27);}.cls-21{clip-path:url(#clip-path-29);}.cls-22{clip-path:url(#clip-path-31);}.cls-23{clip-path:url(#clip-path-33);}.cls-24{clip-path:url(#clip-path-35);}.cls-25{clip-path:url(#clip-path-37);}.cls-26{clip-path:url(#clip-path-39);}.cls-27{clip-path:url(#clip-path-41);}.cls-28{clip-path:url(#clip-path-43);}.cls-29{clip-path:url(#clip-path-45);}.cls-30{clip-path:url(#clip-path-47);}.cls-31{clip-path:url(#clip-path-49);}.cls-32{clip-path:url(#clip-path-51);}.cls-33{clip-path:url(#clip-path-53);}.cls-34{clip-path:url(#clip-path-55);}.cls-35{fill:#36c1ff;}.cls-36{clip-path:url(#clip-path-56);}.cls-37{clip-path:url(#clip-path-57);}.cls-38{clip-path:url(#clip-path-58);}.cls-39{clip-path:url(#clip-path-59);}.cls-40{clip-path:url(#clip-path-60);}.cls-41{clip-path:url(#clip-path-61);}.cls-42{clip-path:url(#clip-path-62);}.cls-43{clip-path:url(#clip-path-63);}.cls-44{clip-path:url(#clip-path-64);}.cls-45{clip-path:url(#clip-path-65);}.cls-46{clip-path:url(#clip-path-66);}.cls-47{clip-path:url(#clip-path-67);}.cls-48{clip-path:url(#clip-path-69);}.cls-49{clip-path:url(#clip-path-71);}.cls-50{clip-path:url(#clip-path-73);}.cls-51{clip-path:url(#clip-path-75);}.cls-52{clip-path:url(#clip-path-77);}.cls-53{clip-path:url(#clip-path-79);}.cls-54{clip-path:url(#clip-path-81);}.cls-55{clip-path:url(#clip-path-83);}.cls-56{clip-path:url(#clip-path-85);}.cls-57{clip-path:url(#clip-path-87);}.cls-58{stroke-dasharray:2 2;}.cls-59{clip-path:url(#clip-path-89);}.cls-60{clip-path:url(#clip-path-91);}.cls-61{clip-path:url(#clip-path-93);}.cls-62{clip-path:url(#clip-path-95);}.cls-63{clip-path:url(#clip-path-97);}.cls-64{clip-path:url(#clip-path-99);}</style><clipPath id="clip-path"><rect class="cls-1" x="-614" y="-520" width="3000" height="2000"/></clipPath><clipPath id="clip-path-3"><rect class="cls-1" x="366.87" y="55.69" width="130.54" height="293.91"/></clipPath><clipPath id="clip-path-5"><rect class="cls-1" x="363.81" y="101.06" width="56.67" height="37.09"/></clipPath><clipPath id="clip-path-7"><rect class="cls-1" x="363.81" y="143.29" width="56.67" height="37.09"/></clipPath><clipPath id="clip-path-9"><rect class="cls-1" x="443.81" y="239.77" width="65.05" height="37.09"/></clipPath><clipPath id="clip-path-11"><rect class="cls-1" x="443.81" y="272.45" width="65.05" height="37.09"/></clipPath><clipPath id="clip-path-13"><rect class="cls-1" x="443.81" y="305.27" width="65.05" height="37.09"/></clipPath><clipPath id="clip-path-15"><rect class="cls-1" x="366.26" y="2.11" width="131.77" height="42.55"/></clipPath><clipPath id="clip-path-17"><rect class="cls-1" x="443.81" y="101.06" width="65.05" height="37.09"/></clipPath><clipPath id="clip-path-19"><rect class="cls-1" x="443.81" y="143.29" width="65.05" height="37.09"/></clipPath><clipPath id="clip-path-21"><rect class="cls-1" x="443.81" y="207.8" width="65.05" height="37.09"/></clipPath><clipPath id="clip-path-23"><rect class="cls-1" x="443.81" y="176.12" width="65.05" height="37.09"/></clipPath><clipPath id="clip-path-25"><rect class="cls-1" x="363.81" y="175.56" width="56.67" height="37.09"/></clipPath><clipPath id="clip-path-27"><rect class="cls-1" x="363.81" y="208.09" width="56.67" height="37.09"/></clipPath><clipPath id="clip-path-29"><rect class="cls-1" x="623.51" y="55.69" width="130.54" height="293.91"/></clipPath><clipPath id="clip-path-31"><rect class="cls-1" x="620.44" y="101.06" width="56.67" height="37.09"/></clipPath><clipPath id="clip-path-33"><rect class="cls-1" x="620.44" y="143.29" width="56.67" height="37.09"/></clipPath><clipPath id="clip-path-35"><rect class="cls-1" x="700.44" y="239.77" width="65.05" height="37.09"/></clipPath><clipPath id="clip-path-37"><rect class="cls-1" x="700.44" y="272.45" width="65.05" height="37.09"/></clipPath><clipPath id="clip-path-39"><rect class="cls-1" x="700.44" y="305.27" width="65.05" height="37.09"/></clipPath><clipPath id="clip-path-41"><rect class="cls-1" x="622.89" y="2.11" width="131.77" height="42.55"/></clipPath><clipPath id="clip-path-43"><rect class="cls-1" x="700.44" y="101.06" width="65.05" height="37.09"/></clipPath><clipPath id="clip-path-45"><rect class="cls-1" x="700.44" y="143.29" width="65.05" height="37.09"/></clipPath><clipPath id="clip-path-47"><rect class="cls-1" x="700.44" y="207.8" width="65.05" height="37.09"/></clipPath><clipPath id="clip-path-49"><rect class="cls-1" x="700.44" y="176.12" width="65.05" height="37.09"/></clipPath><clipPath id="clip-path-51"><rect class="cls-1" x="620.44" y="175.56" width="56.67" height="37.09"/></clipPath><clipPath id="clip-path-53"><rect class="cls-1" x="620.44" y="208.09" width="56.67" height="37.09"/></clipPath><clipPath id="clip-path-55"><rect class="cls-1" x="509.65" y="100.63" width="7.91" height="14.43"/></clipPath><clipPath id="clip-path-56"><rect class="cls-1" x="517.35" y="103.86" width="7.91" height="11.19"/></clipPath><clipPath id="clip-path-57"><rect class="cls-1" x="525.06" y="100.63" width="7.91" height="14.43"/></clipPath><clipPath id="clip-path-58"><rect class="cls-1" x="532.76" y="103.86" width="7.91" height="11.19"/></clipPath><clipPath id="clip-path-59"><rect class="cls-1" x="540.46" y="100.63" width="7.91" height="14.43"/></clipPath><clipPath id="clip-path-60"><rect class="cls-1" x="548.17" y="103.86" width="7.91" height="11.19"/></clipPath><clipPath id="clip-path-61"><rect class="cls-1" x="555.87" y="100.63" width="7.91" height="14.43"/></clipPath><clipPath id="clip-path-62"><rect class="cls-1" x="563.58" y="103.86" width="7.91" height="11.19"/></clipPath><clipPath id="clip-path-63"><rect class="cls-1" x="571.28" y="100.63" width="7.91" height="14.43"/></clipPath><clipPath id="clip-path-64"><rect class="cls-1" x="578.99" y="103.86" width="7.91" height="11.19"/></clipPath><clipPath id="clip-path-65"><rect class="cls-1" x="586.69" y="100.63" width="7.91" height="14.43"/></clipPath><clipPath id="clip-path-66"><rect class="cls-1" x="594.4" y="103.86" width="7.91" height="11.19"/></clipPath><clipPath id="clip-path-67"><rect class="cls-1" x="602.1" y="100.63" width="7.91" height="14.43"/></clipPath><clipPath id="clip-path-69"><rect class="cls-1" x="110.24" y="55.69" width="130.54" height="293.91"/></clipPath><clipPath id="clip-path-71"><rect class="cls-1" x="107.17" y="101.06" width="56.67" height="37.09"/></clipPath><clipPath id="clip-path-73"><rect class="cls-1" x="187.18" y="143.29" width="65.05" height="37.09"/></clipPath><clipPath id="clip-path-75"><rect class="cls-1" x="109.63" y="2.11" width="131.77" height="42.55"/></clipPath><clipPath id="clip-path-77"><rect class="cls-1" x="187.18" y="101.06" width="65.05" height="37.09"/></clipPath><clipPath id="clip-path-79"><rect class="cls-1" x="187.18" y="175.56" width="65.05" height="37.09"/></clipPath><clipPath id="clip-path-81"><rect class="cls-1" x="187.18" y="208.09" width="65.05" height="37.09"/></clipPath><clipPath id="clip-path-83"><rect class="cls-1" x="187.18" y="239.77" width="65.05" height="37.09"/></clipPath><clipPath id="clip-path-85"><rect class="cls-1" x="187.18" y="272.04" width="65.05" height="37.09"/></clipPath><clipPath id="clip-path-87"><rect class="cls-1" x="187.18" y="304.57" width="65.05" height="37.09"/></clipPath><clipPath id="clip-path-89"><rect class="cls-1" x="2.09" y="55.68" width="62.06" height="86.68"/></clipPath><clipPath id="clip-path-91"><rect class="cls-1" x="10.55" y="103" width="56.67" height="30.08"/></clipPath><clipPath id="clip-path-93"><rect class="cls-1" x="800.13" y="55.68" width="62.06" height="86.68"/></clipPath><clipPath id="clip-path-95"><rect class="cls-1" x="797.06" y="103" width="56.67" height="30.08"/></clipPath><clipPath id="clip-path-97"><rect class="cls-1" x="800.13" y="2.11" width="62.06" height="42.55"/></clipPath><clipPath id="clip-path-99"><rect class="cls-1" x="2.09" y="2.11" width="62.06" height="42.55"/></clipPath></defs><g class="cls-2"><g class="cls-2"><rect class="cls-3" x="-614" y="-520" width="3000" height="2000"/><rect class="cls-4" x="365.87" y="54.69" width="132.54" height="295.91"/></g><g class="cls-5"><path d="M409.37,80.31a4.87,4.87,0,0,1-1.24.2,2.47,2.47,0,0,1-1.81-.66,2.53,2.53,0,0,1-.67-1.88V73h-1.07V71.83h1.07V70.29l1.54-.15v1.69h2.21V73h-2.21v4.71a1.89,1.89,0,0,0,.34,1.27,1.38,1.38,0,0,0,1.09.39,4,4,0,0,0,.75-.1Z"/><path d="M415,80.51a4.3,4.3,0,0,1-2.11-.5,3.42,3.42,0,0,1-1.42-1.57,5.3,5.3,0,0,1-.52-2.38,5.65,5.65,0,0,1,.47-2.29,3.42,3.42,0,0,1,1.39-1.6,4.23,4.23,0,0,1,2.19-.54,4.3,4.3,0,0,1,2.11.49,3.42,3.42,0,0,1,1.42,1.57,5.42,5.42,0,0,1,.52,2.37,5.35,5.35,0,0,1-.49,2.31,3.42,3.42,0,0,1-1.39,1.6A4.13,4.13,0,0,1,415,80.51Zm0-1.16a2.1,2.1,0,0,0,1.79-.86,4,4,0,0,0,.64-2.43,4,4,0,0,0-.64-2.42,2.3,2.3,0,0,0-3.57,0,4,4,0,0,0-.63,2.42,4,4,0,0,0,.63,2.43A2.11,2.11,0,0,0,414.94,79.35Z"/><path d="M421.69,80.31V73h-1.21V71.83h1.21v-1a4.22,4.22,0,0,1,.26-1.64,2.36,2.36,0,0,1,.89-1,2.92,2.92,0,0,1,1.6-.39,6.63,6.63,0,0,1,1.76.26v1.22a5.76,5.76,0,0,0-1.66-.32,1.76,1.76,0,0,0-.66.11.93.93,0,0,0-.48.4,2.59,2.59,0,0,0-.18,1.2v1.18h2.12V73h-2.12v7.33Z"/><path d="M427.28,70.29V68.75h1.54v1.54Zm0,10V71.83h1.54v8.48Z"/><path d="M431.9,80.31V71.83h1.54v1.58a4.36,4.36,0,0,1,1.37-1.31,3.09,3.09,0,0,1,1.61-.47,2.37,2.37,0,0,1,1.75.68,2.59,2.59,0,0,1,.67,1.9v6.1H437.3v-5.6a2.85,2.85,0,0,0-.15-1.16,1.1,1.1,0,0,0-.44-.44,1.27,1.27,0,0,0-.6-.15,2.69,2.69,0,0,0-1.23.35,4.71,4.71,0,0,0-1.44,1.5v5.5Z"/><path d="M445.21,80.51a4.26,4.26,0,0,1-2.1-.5,3.42,3.42,0,0,1-1.42-1.57,5.3,5.3,0,0,1-.53-2.38,5.5,5.5,0,0,1,.48-2.29,3.42,3.42,0,0,1,1.39-1.6,4.17,4.17,0,0,1,2.18-.54,4.3,4.3,0,0,1,2.11.49,3.37,3.37,0,0,1,1.42,1.57,5.28,5.28,0,0,1,.52,2.37,5.49,5.49,0,0,1-.48,2.31,3.48,3.48,0,0,1-1.39,1.6A4.17,4.17,0,0,1,445.21,80.51Zm0-1.16a2.11,2.11,0,0,0,1.79-.86,4,4,0,0,0,.63-2.43,3.92,3.92,0,0,0-.64-2.42,2.29,2.29,0,0,0-3.56,0,4,4,0,0,0-.64,2.42,4,4,0,0,0,.64,2.43A2.09,2.09,0,0,0,445.21,79.35Z"/><path d="M454.32,80.31V69.9h-1.84v-1l3.38-.29V80.31Z"/></g><g class="cls-2"><rect class="cls-6" x="365.75" y="102.01" width="52.78" height="32.08"/></g><g class="cls-7"><path d="M369.37,113.9v-6.51h-1.15v-.6l2.11-.18v7.29Z"/><path d="M373.13,115.34l4-9.15h.78l-4,9.15Z"/><path d="M378.53,111.24v-.6h4v.6Z"/><path d="M369.37,129.5V123h-1.15v-.6l2.11-.18v7.29Z"/><path d="M373.9,129.5v-.85a6.67,6.67,0,0,1,1.7-2.14l.55-.49a3.61,3.61,0,0,0,.83-1,1.88,1.88,0,0,0,.23-.92,1.2,1.2,0,0,0-.37-1,1.39,1.39,0,0,0-1-.35,3,3,0,0,0-.52,0,3.14,3.14,0,0,0-.52.17,5.3,5.3,0,0,0-.73.36v-.85a4.49,4.49,0,0,1,1.92-.45,2.29,2.29,0,0,1,1.64.57,1.89,1.89,0,0,1,.6,1.43,2.26,2.26,0,0,1-.25,1,5.1,5.1,0,0,1-1.22,1.32l-.37.32a5.83,5.83,0,0,0-.81.83,2.35,2.35,0,0,0-.53,1h3.15v.85Z"/><path d="M381.7,125.56a2.74,2.74,0,0,1-.88-.85,1.72,1.72,0,0,1-.18-.78,1.67,1.67,0,0,1,.59-1.32,2.64,2.64,0,0,1,3-.09,1.38,1.38,0,0,1,.56,1.13,1.81,1.81,0,0,1-.29.94,3.4,3.4,0,0,1-1.06,1,3.47,3.47,0,0,1,1.27.93,1.95,1.95,0,0,1-.29,2.58,3,3,0,0,1-3.57,0,1.84,1.84,0,0,1-.61-1.38,2.18,2.18,0,0,1,.34-1.14A3,3,0,0,1,381.7,125.56Zm.52.39a2.7,2.7,0,0,0-.84.88,1.66,1.66,0,0,0-.16.73,1.31,1.31,0,0,0,.42,1,1.47,1.47,0,0,0,1,.37,1.61,1.61,0,0,0,1-.31,1,1,0,0,0,.42-.86,1.08,1.08,0,0,0-.22-.69,3.74,3.74,0,0,0-1-.74Zm.7-.69a3,3,0,0,0,.75-.7,1.42,1.42,0,0,0,.26-.78.89.89,0,0,0-.33-.7,1.39,1.39,0,0,0-.89-.27,1.34,1.34,0,0,0-.89.28.86.86,0,0,0-.31.66,1,1,0,0,0,.25.67A4.45,4.45,0,0,0,382.92,125.26Z"/></g><g class="cls-2"><rect class="cls-6" x="365.75" y="144.24" width="52.78" height="32.08"/></g><g class="cls-8"><path d="M367.77,156.07v-.9a4.52,4.52,0,0,0,1.62.41,1.61,1.61,0,0,0,1.13-.4,1.34,1.34,0,0,0,.43-1,1.48,1.48,0,0,0-.44-1.07,2.41,2.41,0,0,0-1.69-.45h-.39V152h.34a2.25,2.25,0,0,0,1.58-.42,1.35,1.35,0,0,0,.42-1,1,1,0,0,0-.33-.8,1.41,1.41,0,0,0-1-.31,3.82,3.82,0,0,0-1.58.41V149a5.53,5.53,0,0,1,1-.25,5.27,5.27,0,0,1,.68,0,2.57,2.57,0,0,1,1.69.46,1.5,1.5,0,0,1,.54,1.21,1.6,1.6,0,0,1-.16.75,1.83,1.83,0,0,1-.47.59,2.5,2.5,0,0,1-.88.48,2.74,2.74,0,0,1,1,.43,1.51,1.51,0,0,1,.52.65,2,2,0,0,1,.18.83,2.22,2.22,0,0,1-.58,1.52,2.46,2.46,0,0,1-1.95.67A7.56,7.56,0,0,1,367.77,156.07Z"/><path d="M373.13,157.57l4-9.15h.78l-4,9.15Z"/><path d="M378.53,153.48v-.6h4v.6Z"/><path d="M369.37,171.73v-6.51h-1.15v-.6l2.11-.18v7.29Z"/><path d="M376.84,171.73v-2h-3.25V169l3.25-4.45h.9v4.4h1v.78h-1v2Zm-2.32-2.83h2.38v-3.22Z"/><path d="M383.16,171.73v-2h-3.25V169l3.25-4.45h.9v4.4h1v.78h-1v2Zm-2.31-2.83h2.37v-3.22Z"/></g><g class="cls-2"><rect class="cls-6" x="445.76" y="240.72" width="52.78" height="32.08"/></g><g class="cls-9"><path d="M476,252.55v-.89a4.85,4.85,0,0,0,1.63.41,1.58,1.58,0,0,0,1.12-.41,1.34,1.34,0,0,0,.44-1,1.45,1.45,0,0,0-.45-1.07,2.38,2.38,0,0,0-1.69-.45h-.38v-.65H477a2.25,2.25,0,0,0,1.58-.42,1.35,1.35,0,0,0,.42-1,1,1,0,0,0-.33-.8,1.43,1.43,0,0,0-1-.31,3.82,3.82,0,0,0-1.58.41v-.84a5.32,5.32,0,0,1,1-.25,5.17,5.17,0,0,1,.68,0,2.58,2.58,0,0,1,1.69.46,1.52,1.52,0,0,1,.54,1.22,1.72,1.72,0,0,1-.16.74,2,2,0,0,1-.47.6,2.78,2.78,0,0,1-.88.47,2.74,2.74,0,0,1,1.05.43,1.65,1.65,0,0,1,.52.65,2,2,0,0,1,.18.84,2.27,2.27,0,0,1-.58,1.51,2.46,2.46,0,0,1-2,.67A7.63,7.63,0,0,1,476,252.55Z"/><path d="M484.43,252.79a2,2,0,0,1-1.39-.52,3.21,3.21,0,0,1-.86-1.41,6.58,6.58,0,0,1,0-3.73,3.12,3.12,0,0,1,.86-1.41,2.07,2.07,0,0,1,1.39-.52,2,2,0,0,1,1.4.52,3.12,3.12,0,0,1,.86,1.41A6.36,6.36,0,0,1,487,249a6.22,6.22,0,0,1-.27,1.85,3,3,0,0,1-.86,1.41A2,2,0,0,1,484.43,252.79Zm0-.72a1.2,1.2,0,0,0,1.15-.85,7.06,7.06,0,0,0,0-4.45,1.2,1.2,0,0,0-2.29,0,7.06,7.06,0,0,0,0,4.45A1.18,1.18,0,0,0,484.43,252.07Z"/><path d="M487.66,254.05l4-9.15h.78l-4,9.15Z"/><path d="M493.05,250v-.6h4v.6Z"/><path d="M481.19,268.21V261.7H480v-.6l2.11-.18v7.29Z"/><path d="M486.1,268.24v-.86a3.75,3.75,0,0,0,1.37.29,1.41,1.41,0,0,0,1.16-.47,1.67,1.67,0,0,0,.37-1.11,1.44,1.44,0,0,0-.54-1.18,2.66,2.66,0,0,0-1.7-.45,3.23,3.23,0,0,0-.53,0V261h3.65v.85h-2.81v1.9a3.15,3.15,0,0,1,2.24.69,2.31,2.31,0,0,1,.72,1.72,2.2,2.2,0,0,1-.65,1.59,2.74,2.74,0,0,1-2,.66A6,6,0,0,1,486.1,268.24Z"/><path d="M492.93,264.47a2.72,2.72,0,0,1,.53-.54,2.2,2.2,0,0,1,.56-.26,2.25,2.25,0,0,1,.64-.1,2.13,2.13,0,0,1,1.12.3,1.86,1.86,0,0,1,.77.8,2.4,2.4,0,0,1,.27,1.14,2.93,2.93,0,0,1-.31,1.3,2.51,2.51,0,0,1-.82.94,2.23,2.23,0,0,1-1.27.34,2.06,2.06,0,0,1-1.91-1.05,4.93,4.93,0,0,1-.63-2.58,6.31,6.31,0,0,1,.3-1.95,3.16,3.16,0,0,1,.93-1.47,2.54,2.54,0,0,1,1.71-.54c.23,0,.44,0,.65,0a9.28,9.28,0,0,1,1,.23v.84a4.94,4.94,0,0,0-1.68-.39,1.47,1.47,0,0,0-1.4.82A4.5,4.5,0,0,0,492.93,264.47Zm2.92,1.53a1.87,1.87,0,0,0-.4-1.3,1.27,1.27,0,0,0-1-.43,1.78,1.78,0,0,0-1,.35,1.21,1.21,0,0,0-.5,1,2.83,2.83,0,0,0,.35,1.35,1.21,1.21,0,0,0,1.17.66,1.26,1.26,0,0,0,1-.44A1.83,1.83,0,0,0,495.85,266Z"/></g><g class="cls-2"><rect class="cls-6" x="445.76" y="273.39" width="52.78" height="32.08"/></g><g class="cls-10"><path d="M476,285.23v-.9a4.85,4.85,0,0,0,1.63.41,1.57,1.57,0,0,0,1.12-.4,1.37,1.37,0,0,0,.44-1,1.47,1.47,0,0,0-.45-1.08,2.38,2.38,0,0,0-1.69-.45h-.38v-.65H477a2.25,2.25,0,0,0,1.58-.42,1.39,1.39,0,0,0,.42-1,1,1,0,0,0-.33-.81,1.48,1.48,0,0,0-1-.3,3.79,3.79,0,0,0-1.58.4v-.84a4.45,4.45,0,0,1,1-.24,5.17,5.17,0,0,1,.68,0,2.64,2.64,0,0,1,1.69.45,1.54,1.54,0,0,1,.54,1.22,1.72,1.72,0,0,1-.16.74,1.76,1.76,0,0,1-.47.6,2.78,2.78,0,0,1-.88.48,2.92,2.92,0,0,1,1.05.42,1.65,1.65,0,0,1,.52.65,2,2,0,0,1,.18.84,2.29,2.29,0,0,1-.58,1.52,2.49,2.49,0,0,1-2,.66A7.54,7.54,0,0,1,476,285.23Z"/><path d="M483.89,285.28v-6.5h-1.14v-.61l2.1-.18v7.29Z"/><path d="M487.66,286.73l4-9.16h.78l-4,9.16Z"/><path d="M493.05,282.63V282h4v.6Z"/><path d="M481.19,300.88v-6.5H480v-.61l2.11-.18v7.29Z"/><path d="M485.9,300.83v-.9a4.85,4.85,0,0,0,1.63.41,1.57,1.57,0,0,0,1.12-.4,1.33,1.33,0,0,0,.44-1,1.47,1.47,0,0,0-.45-1.08,2.36,2.36,0,0,0-1.68-.45h-.39v-.65h.34a2.2,2.2,0,0,0,1.58-.43,1.35,1.35,0,0,0,.42-1,1,1,0,0,0-.33-.81,1.48,1.48,0,0,0-1-.3,3.79,3.79,0,0,0-1.58.4v-.84a5.53,5.53,0,0,1,1-.25l.68,0a2.64,2.64,0,0,1,1.69.45,1.54,1.54,0,0,1,.54,1.22,1.58,1.58,0,0,1-.16.74,1.76,1.76,0,0,1-.47.6,3,3,0,0,1-.88.48,2.92,2.92,0,0,1,1.05.42,1.65,1.65,0,0,1,.52.65,2,2,0,0,1,.18.84,2.29,2.29,0,0,1-.58,1.52,2.49,2.49,0,0,1-2,.66A7.54,7.54,0,0,1,485.9,300.83Z"/><path d="M492,300.88V300a6.57,6.57,0,0,1,1.7-2.14l.55-.49a3.93,3.93,0,0,0,.83-1,1.9,1.9,0,0,0,.23-.92,1.24,1.24,0,0,0-.37-1,1.4,1.4,0,0,0-1-.34,2.24,2.24,0,0,0-.52.05,3.05,3.05,0,0,0-.52.16,7.2,7.2,0,0,0-.73.37v-.85a4.49,4.49,0,0,1,1.92-.45,2.29,2.29,0,0,1,1.64.57,1.87,1.87,0,0,1,.6,1.42,2.39,2.39,0,0,1-.25,1,5.09,5.09,0,0,1-1.22,1.33l-.37.31a6.54,6.54,0,0,0-.81.84,2.3,2.3,0,0,0-.53,1h3.15v.84Z"/></g><g class="cls-2"><rect class="cls-6" x="445.76" y="306.22" width="52.78" height="32.08"/></g><g class="cls-11"><path d="M476,318.06v-.9a4.85,4.85,0,0,0,1.63.41,1.58,1.58,0,0,0,1.12-.41,1.34,1.34,0,0,0,.44-1,1.47,1.47,0,0,0-.45-1.07,2.38,2.38,0,0,0-1.69-.45h-.38V314H477a2.25,2.25,0,0,0,1.58-.42,1.35,1.35,0,0,0,.42-1,1,1,0,0,0-.33-.8,1.48,1.48,0,0,0-1-.31,3.82,3.82,0,0,0-1.58.41V311a5.32,5.32,0,0,1,1-.25,5.17,5.17,0,0,1,.68,0,2.64,2.64,0,0,1,1.69.46,1.52,1.52,0,0,1,.54,1.22,1.72,1.72,0,0,1-.16.74,2,2,0,0,1-.47.6,2.78,2.78,0,0,1-.88.47,2.91,2.91,0,0,1,1.05.43,1.65,1.65,0,0,1,.52.65,2,2,0,0,1,.18.84,2.27,2.27,0,0,1-.58,1.51,2.46,2.46,0,0,1-2,.67A8.17,8.17,0,0,1,476,318.06Z"/><path d="M482.1,318.11v-.85a6.65,6.65,0,0,1,1.7-2.13l.55-.5a3.61,3.61,0,0,0,.83-1,2,2,0,0,0,.23-.92,1.23,1.23,0,0,0-.37-1,1.41,1.41,0,0,0-1-.35,2.24,2.24,0,0,0-.52.06,2.61,2.61,0,0,0-.53.16,6.29,6.29,0,0,0-.72.37v-.85a4.36,4.36,0,0,1,1.92-.46,2.29,2.29,0,0,1,1.64.57,1.89,1.89,0,0,1,.6,1.43,2.39,2.39,0,0,1-.25,1.05,4.94,4.94,0,0,1-1.22,1.32l-.37.32a6.42,6.42,0,0,0-.81.83,2.4,2.4,0,0,0-.53,1h3.15v.85Z"/><path d="M487.66,319.55l4-9.15h.78l-4,9.15Z"/><path d="M493.05,315.46v-.6h4v.6Z"/><path d="M481.19,333.71v-6.5H480v-.61l2.11-.18v7.29Z"/><path d="M488.65,333.71v-2H485.4v-.72l3.25-4.46h.91v4.4h1v.78h-1v2Zm-2.31-2.83h2.38v-3.22Z"/><path d="M494.38,333.89a2,2,0,0,1-1.4-.52,3.21,3.21,0,0,1-.86-1.41,6.58,6.58,0,0,1,0-3.73,3.12,3.12,0,0,1,.86-1.41,2.09,2.09,0,0,1,1.4-.52,2,2,0,0,1,1.39.52,3,3,0,0,1,.86,1.41,6.36,6.36,0,0,1,.27,1.87,6.22,6.22,0,0,1-.27,1.85,3,3,0,0,1-.86,1.41A2,2,0,0,1,494.38,333.89Zm0-.72a1.2,1.2,0,0,0,1.15-.85,7.06,7.06,0,0,0,0-4.45,1.2,1.2,0,0,0-2.29,0,7.06,7.06,0,0,0,0,4.45A1.18,1.18,0,0,0,494.37,333.17Z"/></g><g class="cls-2"><polyline class="cls-12" points="499 289.56 521.88 289.56 521.88 322.88 498.91 322.88"/><rect class="cls-13" x="365.26" y="1.11" width="133.77" height="44.55"/><rect class="cls-4" x="365.26" y="1.11" width="133.77" height="44.55"/></g><g class="cls-14"><path d="M420.87,29.73V28.14a3.44,3.44,0,0,1-1.17,1.34,3,3,0,0,1-1.65.45,2.86,2.86,0,0,1-2.42-1.15,4.91,4.91,0,0,1-.87-3,5.6,5.6,0,0,1,1-3.35,3.09,3.09,0,0,1,2.65-1.35,3.54,3.54,0,0,1,.93.12,3,3,0,0,1,.79.33,3.45,3.45,0,0,1,.77.71V17.4h1.54V29.73Zm0-6.46a4.52,4.52,0,0,0-1.26-.88,2.73,2.73,0,0,0-1-.18,1.8,1.8,0,0,0-1.67.95,4.87,4.87,0,0,0-.54,2.44,4.22,4.22,0,0,0,.48,2.18,1.61,1.61,0,0,0,1.48.8,2.62,2.62,0,0,0,1.27-.35,4.88,4.88,0,0,0,1.24-1.05Z"/><path d="M425.51,19.71V18.17H427v1.54Zm0,10V21.25H427v8.48Z"/><path d="M433.91,29.73a4.73,4.73,0,0,1-1.23.2,2.5,2.5,0,0,1-1.82-.66,2.55,2.55,0,0,1-.67-1.88v-5h-1.06V21.25h1.06V19.71l1.54-.15v1.69H434v1.16h-2.22v4.7a1.92,1.92,0,0,0,.35,1.28,1.4,1.4,0,0,0,1.09.38,3.22,3.22,0,0,0,.74-.1Z"/><path d="M439.9,29.73a4.87,4.87,0,0,1-1.24.2,2.47,2.47,0,0,1-1.81-.66,2.51,2.51,0,0,1-.67-1.88v-5h-1.06V21.25h1.06V19.71l1.54-.15v1.69h2.22v1.16h-2.22v4.7a1.92,1.92,0,0,0,.34,1.28,1.41,1.41,0,0,0,1.09.38,3.3,3.3,0,0,0,.75-.1Z"/><path d="M445.48,29.93a4.3,4.3,0,0,1-2.11-.5A3.44,3.44,0,0,1,442,27.87a5.33,5.33,0,0,1-.52-2.38,5.66,5.66,0,0,1,.47-2.3,3.53,3.53,0,0,1,1.39-1.6,4.23,4.23,0,0,1,2.19-.54,4.3,4.3,0,0,1,2.11.5A3.44,3.44,0,0,1,449,23.11a5.33,5.33,0,0,1,.52,2.38A5.41,5.41,0,0,1,449,27.8a3.43,3.43,0,0,1-1.38,1.59A4.2,4.2,0,0,1,445.48,29.93Zm0-1.16a2.09,2.09,0,0,0,1.79-.85,4,4,0,0,0,.64-2.43,4,4,0,0,0-.64-2.43,2.1,2.1,0,0,0-1.79-.85,2.07,2.07,0,0,0-1.77.85,4,4,0,0,0-.64,2.43,4,4,0,0,0,.64,2.43A2.07,2.07,0,0,0,445.47,28.77Z"/></g><g class="cls-2"><rect class="cls-6" x="445.76" y="102.01" width="52.78" height="32.08"/></g><g class="cls-15"><path d="M482.1,113.9v-.85a6.67,6.67,0,0,1,1.7-2.14l.55-.49a3.61,3.61,0,0,0,.83-1,2,2,0,0,0,.23-.92,1.2,1.2,0,0,0-.37-1,1.42,1.42,0,0,0-1-.35,2.94,2.94,0,0,0-.51.05,3.56,3.56,0,0,0-.53.17,5.92,5.92,0,0,0-.72.36v-.85a4.49,4.49,0,0,1,1.92-.45,2.29,2.29,0,0,1,1.64.57,1.89,1.89,0,0,1,.6,1.43,2.39,2.39,0,0,1-.25,1.05,5.1,5.1,0,0,1-1.22,1.32l-.37.32a5.83,5.83,0,0,0-.81.83,2.35,2.35,0,0,0-.53,1h3.15v.85Z"/><path d="M487.65,115.34l4-9.15h.78l-4,9.15Z"/><path d="M493.05,111.24v-.6h4v.6Z"/><path d="M481.19,129.5V123H480v-.6l2.11-.18v7.29Z"/><path d="M485.9,129.44v-.9a4.61,4.61,0,0,0,1.63.41,1.57,1.57,0,0,0,1.12-.4,1.32,1.32,0,0,0,.44-1,1.47,1.47,0,0,0-.45-1.08A2.37,2.37,0,0,0,487,126h-.39v-.65h.34a2.25,2.25,0,0,0,1.58-.42,1.35,1.35,0,0,0,.42-1,1.06,1.06,0,0,0-.33-.81,1.48,1.48,0,0,0-1-.3,3.82,3.82,0,0,0-1.58.41v-.84a4.75,4.75,0,0,1,1-.25,5.27,5.27,0,0,1,.68,0,2.58,2.58,0,0,1,1.69.46,1.5,1.5,0,0,1,.54,1.21,1.62,1.62,0,0,1-.16.75,1.83,1.83,0,0,1-.47.59,2.6,2.6,0,0,1-.88.48,2.92,2.92,0,0,1,1.05.42,1.73,1.73,0,0,1,.52.65,2,2,0,0,1,.18.84,2.27,2.27,0,0,1-.58,1.52,2.46,2.46,0,0,1-2,.67A7.63,7.63,0,0,1,485.9,129.44Z"/><path d="M492.93,125.76a2.47,2.47,0,0,1,.53-.54A2.2,2.2,0,0,1,494,125a2,2,0,0,1,.64-.1,2.13,2.13,0,0,1,1.12.3,1.86,1.86,0,0,1,.77.8,2.4,2.4,0,0,1,.27,1.14,2.85,2.85,0,0,1-.31,1.29,2.47,2.47,0,0,1-.82,1,2.31,2.31,0,0,1-1.27.34,2.06,2.06,0,0,1-1.91-1.05,4.93,4.93,0,0,1-.63-2.58,6.31,6.31,0,0,1,.3-2,3.16,3.16,0,0,1,.93-1.47,2.54,2.54,0,0,1,1.71-.54,4.54,4.54,0,0,1,.65,0,9.28,9.28,0,0,1,1,.23v.84a4.94,4.94,0,0,0-1.68-.39,1.47,1.47,0,0,0-1.4.82A4.5,4.5,0,0,0,492.93,125.76Zm2.92,1.53a1.84,1.84,0,0,0-.4-1.3,1.27,1.27,0,0,0-1-.43,1.71,1.71,0,0,0-1,.35,1.21,1.21,0,0,0-.5,1,2.83,2.83,0,0,0,.35,1.35,1.21,1.21,0,0,0,1.17.65,1.25,1.25,0,0,0,1-.43A1.83,1.83,0,0,0,495.85,127.29Z"/></g><g class="cls-2"><rect class="cls-6" x="445.76" y="144.24" width="52.78" height="32.08"/></g><g class="cls-16"><path d="M475.78,156.13v-.85a6.63,6.63,0,0,1,1.7-2.14l.55-.49a3.8,3.8,0,0,0,.83-1,2,2,0,0,0,.23-.92,1.25,1.25,0,0,0-.37-1,1.42,1.42,0,0,0-1-.35,2.76,2.76,0,0,0-.51.05,3.23,3.23,0,0,0-.53.17,5.28,5.28,0,0,0-.72.36v-.85a4.48,4.48,0,0,1,1.91-.45,2.27,2.27,0,0,1,1.64.57,1.89,1.89,0,0,1,.6,1.43,2.38,2.38,0,0,1-.24,1.05,5.12,5.12,0,0,1-1.22,1.32l-.37.32a6.46,6.46,0,0,0-.82.83,2.32,2.32,0,0,0-.52,1h3.14v.85Z"/><path d="M482.77,156.13a5.79,5.79,0,0,1,.48-1.62,14.28,14.28,0,0,1,.85-1.53l2-3.18h-3.73v-.9H487v.9c-.62.92-1.14,1.75-1.54,2.48s-.75,1.42-1,2.07a7.11,7.11,0,0,0-.54,1.78Z"/><path d="M487.66,157.57l4-9.15h.78l-4,9.15Z"/><path d="M493.05,153.48v-.6h4v.6Z"/><path d="M481.19,171.73v-6.51H480v-.6l2.11-.18v7.29Z"/><path d="M486.39,171.73a6.16,6.16,0,0,1,.47-1.62,16.68,16.68,0,0,1,.86-1.53l2-3.18H486v-.9h4.64v.9c-.62.92-1.14,1.75-1.54,2.48a22,22,0,0,0-1,2.07,7.11,7.11,0,0,0-.54,1.78Z"/><path d="M492,171.73v-.85a6.78,6.78,0,0,1,1.7-2.14l.55-.49a3.61,3.61,0,0,0,.83-1,1.88,1.88,0,0,0,.23-.92,1.21,1.21,0,0,0-.37-1,1.41,1.41,0,0,0-1-.35,3,3,0,0,0-.52.05,3.14,3.14,0,0,0-.52.17,5.3,5.3,0,0,0-.73.36v-.85a4.49,4.49,0,0,1,1.92-.45,2.29,2.29,0,0,1,1.64.57,1.89,1.89,0,0,1,.6,1.43,2.39,2.39,0,0,1-.25,1.05,4.94,4.94,0,0,1-1.22,1.32l-.37.32a5.83,5.83,0,0,0-.81.83,2.35,2.35,0,0,0-.53,1h3.15v.85Z"/></g><g class="cls-2"><rect class="cls-6" x="445.76" y="208.74" width="52.78" height="32.08"/></g><g class="cls-17"><path d="M475.78,220.63v-.84a6.53,6.53,0,0,1,1.7-2.14l.55-.49a4.16,4.16,0,0,0,.83-1,2,2,0,0,0,.23-.92,1.27,1.27,0,0,0-.37-1,1.41,1.41,0,0,0-1-.34,2.76,2.76,0,0,0-.51.05,3.23,3.23,0,0,0-.53.17,5.28,5.28,0,0,0-.72.36v-.85a4.48,4.48,0,0,1,1.91-.45,2.27,2.27,0,0,1,1.64.57,1.89,1.89,0,0,1,.6,1.42,2.31,2.31,0,0,1-.24,1.05,5.29,5.29,0,0,1-1.22,1.33l-.37.32a6.46,6.46,0,0,0-.82.83,2.28,2.28,0,0,0-.52,1h3.14v.84Z"/><path d="M482.41,220.59v-.81a4.92,4.92,0,0,0,1.56.31,1.65,1.65,0,0,0,1-.31,2,2,0,0,0,.65-1,4.8,4.8,0,0,0,.24-1.55,2.65,2.65,0,0,1-.56.56,1.75,1.75,0,0,1-.51.26,2,2,0,0,1-.6.09,2.08,2.08,0,0,1-1.11-.32,2.35,2.35,0,0,1-.79-.84,2.47,2.47,0,0,1-.28-1.15,2.92,2.92,0,0,1,.31-1.29,2.34,2.34,0,0,1,.83-.95,2.23,2.23,0,0,1,1.24-.33,2.05,2.05,0,0,1,1.91,1,4.7,4.7,0,0,1,.62,2.49,6,6,0,0,1-.36,2.09,3.22,3.22,0,0,1-1,1.47,2.72,2.72,0,0,1-1.67.5A6.39,6.39,0,0,1,482.41,220.59Zm.58-5a2.09,2.09,0,0,0,.38,1.3,1.23,1.23,0,0,0,1,.48,1.56,1.56,0,0,0,1-.38,1.26,1.26,0,0,0,.48-1,2.88,2.88,0,0,0-.21-1.08,1.59,1.59,0,0,0-.54-.75,1.29,1.29,0,0,0-.77-.22,1.2,1.2,0,0,0-1,.45A2,2,0,0,0,483,215.63Z"/><path d="M487.66,222.08l4-9.16h.78l-4,9.16Z"/><path d="M493.05,218v-.6h4v.6Z"/><path d="M481.19,236.24v-6.51H480v-.6l2.11-.18v7.29Z"/><path d="M488.65,236.24v-2.05H485.4v-.73l3.25-4.45h.91v4.39h1v.79h-1v2.05Zm-2.31-2.84h2.38v-3.21Z"/><path d="M493.51,232.3a2.58,2.58,0,0,1-.87-.85,1.61,1.61,0,0,1-.19-.78,1.7,1.7,0,0,1,.59-1.32,2.66,2.66,0,0,1,3-.09,1.36,1.36,0,0,1,.55,1.12,1.8,1.8,0,0,1-.28,1,3.46,3.46,0,0,1-1.07,1,3.52,3.52,0,0,1,1.28.93,1.88,1.88,0,0,1,.36,1.13,1.92,1.92,0,0,1-.65,1.45,2.57,2.57,0,0,1-1.79.61,2.52,2.52,0,0,1-1.78-.58,1.84,1.84,0,0,1-.61-1.38,2.18,2.18,0,0,1,.34-1.14A3,3,0,0,1,493.51,232.3Zm.52.39a2.7,2.7,0,0,0-.84.88,1.77,1.77,0,0,0-.15.73,1.32,1.32,0,0,0,.41,1,1.47,1.47,0,0,0,1,.38,1.64,1.64,0,0,0,1-.31,1,1,0,0,0,.42-.86,1.14,1.14,0,0,0-.22-.69,3.93,3.93,0,0,0-1-.74Zm.71-.69a2.94,2.94,0,0,0,.74-.7,1.36,1.36,0,0,0,.27-.78.87.87,0,0,0-.34-.7,1.37,1.37,0,0,0-.89-.27,1.26,1.26,0,0,0-.88.28.87.87,0,0,0-.32.66,1.07,1.07,0,0,0,.26.67A4.28,4.28,0,0,0,494.74,232Z"/></g><g class="cls-2"><rect class="cls-6" x="445.76" y="177.06" width="52.78" height="32.08"/></g><g class="cls-18"><path d="M475.78,189v-.84a6.43,6.43,0,0,1,1.7-2.14l.55-.49a4.16,4.16,0,0,0,.83-1,2,2,0,0,0,.23-.92,1.27,1.27,0,0,0-.37-1,1.41,1.41,0,0,0-1-.34,2.76,2.76,0,0,0-.51,0,3.14,3.14,0,0,0-.53.16,7.22,7.22,0,0,0-.72.37V182a4.48,4.48,0,0,1,1.91-.45,2.27,2.27,0,0,1,1.64.57,1.87,1.87,0,0,1,.6,1.42,2.38,2.38,0,0,1-.24,1.05,5.29,5.29,0,0,1-1.22,1.33l-.37.31a7.32,7.32,0,0,0-.82.84,2.28,2.28,0,0,0-.52,1h3.14V189Z"/><path d="M483.57,185a2.58,2.58,0,0,1-.87-.85,1.61,1.61,0,0,1-.19-.78,1.7,1.7,0,0,1,.59-1.32,2.66,2.66,0,0,1,3-.09,1.36,1.36,0,0,1,.55,1.12,1.8,1.8,0,0,1-.28,1,3.46,3.46,0,0,1-1.07,1,3.28,3.28,0,0,1,1.27.93,1.82,1.82,0,0,1,.37,1.13,1.91,1.91,0,0,1-.66,1.45,2.52,2.52,0,0,1-1.78.6,2.48,2.48,0,0,1-1.78-.58,1.82,1.82,0,0,1-.62-1.38,2.27,2.27,0,0,1,.34-1.14A3,3,0,0,1,483.57,185Zm.52.39a2.69,2.69,0,0,0-.84.87,1.85,1.85,0,0,0-.15.74,1.28,1.28,0,0,0,.41,1,1.45,1.45,0,0,0,1,.38,1.64,1.64,0,0,0,1-.31,1,1,0,0,0,.42-.87,1.07,1.07,0,0,0-.23-.68,3.64,3.64,0,0,0-1-.74Zm.71-.7a2.77,2.77,0,0,0,.74-.7,1.32,1.32,0,0,0,.27-.78.85.85,0,0,0-.34-.69,1.37,1.37,0,0,0-.89-.27,1.28,1.28,0,0,0-.89.28.86.86,0,0,0-.31.66,1,1,0,0,0,.26.67A4.31,4.31,0,0,0,484.8,184.71Z"/><path d="M487.66,190.4l4-9.16h.78l-4,9.16Z"/><path d="M493.05,186.3v-.6h4v.6Z"/><path d="M481.19,204.55v-6.5H480v-.61l2.11-.18v7.29Z"/><path d="M486.61,200.81a2.2,2.2,0,0,1,.53-.53,1.82,1.82,0,0,1,.56-.27,2.31,2.31,0,0,1,1.76.2,2,2,0,0,1,.77.8,2.39,2.39,0,0,1,.26,1.14,2.86,2.86,0,0,1-.3,1.3,2.44,2.44,0,0,1-.82.94,2.25,2.25,0,0,1-1.27.34,2.1,2.1,0,0,1-1.92-1,5,5,0,0,1-.62-2.59,6.3,6.3,0,0,1,.3-1.94,3.14,3.14,0,0,1,.93-1.48,2.55,2.55,0,0,1,1.71-.53,4.63,4.63,0,0,1,.65,0,7.24,7.24,0,0,1,1,.23v.84a4.94,4.94,0,0,0-1.68-.39,1.48,1.48,0,0,0-1.4.81A4.56,4.56,0,0,0,486.61,200.81Zm2.92,1.53a1.88,1.88,0,0,0-.4-1.29,1.31,1.31,0,0,0-1-.44,1.68,1.68,0,0,0-1,.36,1.18,1.18,0,0,0-.5,1,2.77,2.77,0,0,0,.35,1.35,1.35,1.35,0,0,0,2.15.21A1.83,1.83,0,0,0,489.53,202.34Z"/><path d="M495,204.55v-2h-3.26v-.73l3.26-4.45h.9v4.39h1v.79h-1v2Zm-2.32-2.83H495v-3.21Z"/></g><g class="cls-2"><rect class="cls-6" x="365.75" y="176.5" width="52.78" height="32.08"/></g><g class="cls-19"><path d="M370.51,188.39v-2h-3.25v-.72l3.25-4.46h.91v4.4h1v.78h-1v2Zm-2.31-2.83h2.38v-3.22Z"/><path d="M373.13,189.84l4-9.16h.78l-4,9.16Z"/><path d="M378.53,185.74v-.6h4v.6Z"/><path d="M369.37,204v-6.5h-1.15v-.61l2.11-.18V204Z"/><path d="M374.29,204v-.86a3.71,3.71,0,0,0,1.37.29,1.41,1.41,0,0,0,1.15-.46,1.71,1.71,0,0,0,.37-1.11,1.46,1.46,0,0,0-.54-1.19,2.64,2.64,0,0,0-1.7-.44l-.53,0v-3.52h3.66v.85h-2.82v1.9a3.11,3.11,0,0,1,2.24.69,2.31,2.31,0,0,1,.72,1.72,2.18,2.18,0,0,1-.65,1.59,2.71,2.71,0,0,1-2,.66A6,6,0,0,1,374.29,204Z"/><path d="M380.23,204v-.84a6.43,6.43,0,0,1,1.7-2.14l.55-.5a4,4,0,0,0,.83-1,2.06,2.06,0,0,0,.23-.93,1.26,1.26,0,0,0-.37-.95,1.41,1.41,0,0,0-1-.34,2.1,2.1,0,0,0-.51.05,3.14,3.14,0,0,0-.53.16,6.27,6.27,0,0,0-.72.37V197a4.35,4.35,0,0,1,1.91-.46,2.29,2.29,0,0,1,1.64.57,1.91,1.91,0,0,1,.6,1.43,2.38,2.38,0,0,1-.24,1A5.12,5.12,0,0,1,383.1,201l-.37.32a7.17,7.17,0,0,0-.82.83,2.36,2.36,0,0,0-.52,1.05h3.14V204Z"/></g><g class="cls-2"><rect class="cls-6" x="365.75" y="209.04" width="52.78" height="32.08"/></g><g class="cls-20"><path d="M368,221v-.86a3.64,3.64,0,0,0,1.36.28,1.4,1.4,0,0,0,1.16-.46,1.69,1.69,0,0,0,.37-1.11,1.48,1.48,0,0,0-.54-1.19,2.72,2.72,0,0,0-1.7-.44l-.53,0V213.7h3.65v.84h-2.81v1.9a3.15,3.15,0,0,1,2.24.7,2.28,2.28,0,0,1,.72,1.72,2.2,2.2,0,0,1-.65,1.59,2.73,2.73,0,0,1-2,.66A5.89,5.89,0,0,1,368,221Z"/><path d="M373.13,222.37l4-9.15h.78l-4,9.15Z"/><path d="M378.53,218.27v-.6h4v.6Z"/><path d="M369.37,236.53V230h-1.15v-.6l2.11-.18v7.29Z"/><path d="M374.79,232.79a2.47,2.47,0,0,1,.53-.54,2.2,2.2,0,0,1,.56-.26,2,2,0,0,1,.64-.1,2.17,2.17,0,0,1,1.13.3,1.89,1.89,0,0,1,.76.8,2.4,2.4,0,0,1,.27,1.14,2.73,2.73,0,0,1-.31,1.29,2.39,2.39,0,0,1-.82,1,2.29,2.29,0,0,1-1.27.34,2.06,2.06,0,0,1-1.91-1.05,4.93,4.93,0,0,1-.63-2.58,6.31,6.31,0,0,1,.3-2,3.24,3.24,0,0,1,.93-1.47,2.54,2.54,0,0,1,1.71-.54,4.54,4.54,0,0,1,.65,0,9.28,9.28,0,0,1,1,.23v.84a4.94,4.94,0,0,0-1.68-.39,1.45,1.45,0,0,0-1.39.82A4.5,4.5,0,0,0,374.79,232.79Zm2.92,1.53a1.86,1.86,0,0,0-.4-1.3,1.27,1.27,0,0,0-1-.43,1.78,1.78,0,0,0-1,.35,1.21,1.21,0,0,0-.5,1,2.83,2.83,0,0,0,.35,1.35,1.21,1.21,0,0,0,1.17.65,1.23,1.23,0,0,0,1-.43A1.83,1.83,0,0,0,377.71,234.32Z"/><path d="M382.56,236.71a2,2,0,0,1-1.39-.52,3,3,0,0,1-.86-1.41,6.35,6.35,0,0,1,0-3.73,3,3,0,0,1,.86-1.41,2.12,2.12,0,0,1,2.78,0,3,3,0,0,1,.86,1.41,6,6,0,0,1,.28,1.86,6.34,6.34,0,0,1-.27,1.86,3.12,3.12,0,0,1-.86,1.41A2,2,0,0,1,382.56,236.71Zm0-.73a1.21,1.21,0,0,0,1.15-.84,7.25,7.25,0,0,0,0-4.45,1.2,1.2,0,0,0-2.3,0,7.25,7.25,0,0,0,0,4.45A1.2,1.2,0,0,0,382.56,236Z"/></g><g class="cls-2"><polyline class="cls-12" points="499 224.11 521.88 224.11 521.88 257.43 498.91 257.43"/><polyline class="cls-12" points="499 160.56 521.88 160.56 521.88 193.88 498.91 193.88"/><rect class="cls-4" x="622.51" y="54.69" width="132.54" height="295.91"/></g><g class="cls-21"><path d="M666,80.31a4.87,4.87,0,0,1-1.24.2,2.47,2.47,0,0,1-1.81-.66,2.53,2.53,0,0,1-.67-1.88V73h-1.07V71.83h1.07V70.29l1.54-.15v1.69H666V73h-2.22v4.71a1.89,1.89,0,0,0,.34,1.27,1.38,1.38,0,0,0,1.09.39,4,4,0,0,0,.75-.1Z"/><path d="M671.58,80.51a4.3,4.3,0,0,1-2.11-.5,3.42,3.42,0,0,1-1.42-1.57,5.3,5.3,0,0,1-.52-2.38,5.65,5.65,0,0,1,.47-2.29,3.48,3.48,0,0,1,1.39-1.6,4.23,4.23,0,0,1,2.19-.54,4.3,4.3,0,0,1,2.11.49,3.42,3.42,0,0,1,1.42,1.57,5.28,5.28,0,0,1,.52,2.37,5.35,5.35,0,0,1-.49,2.31,3.46,3.46,0,0,1-1.38,1.6A4.2,4.2,0,0,1,671.58,80.51Zm0-1.16a2.1,2.1,0,0,0,1.79-.86,4,4,0,0,0,.64-2.43,4,4,0,0,0-.64-2.42,2.3,2.3,0,0,0-3.57,0,4,4,0,0,0-.63,2.42,4,4,0,0,0,.63,2.43A2.11,2.11,0,0,0,671.57,79.35Z"/><path d="M678.32,80.31V73h-1.21V71.83h1.21v-1a4,4,0,0,1,.27-1.64,2.27,2.27,0,0,1,.88-1,2.94,2.94,0,0,1,1.6-.39,6.63,6.63,0,0,1,1.76.26v1.22a5.76,5.76,0,0,0-1.66-.32,1.76,1.76,0,0,0-.66.11.91.91,0,0,0-.47.4,2.59,2.59,0,0,0-.18,1.2v1.18H682V73h-2.11v7.33Z"/><path d="M683.91,70.29V68.75h1.54v1.54Zm0,10V71.83h1.54v8.48Z"/><path d="M688.54,80.31V71.83h1.53v1.58a4.36,4.36,0,0,1,1.37-1.31,3.09,3.09,0,0,1,1.61-.47,2.37,2.37,0,0,1,1.75.68,2.59,2.59,0,0,1,.67,1.9v6.1h-1.54v-5.6a2.85,2.85,0,0,0-.15-1.16,1.1,1.1,0,0,0-.44-.44,1.27,1.27,0,0,0-.6-.15,2.69,2.69,0,0,0-1.23.35,4.71,4.71,0,0,0-1.44,1.5v5.5Z"/><path d="M701.84,80.51a4.26,4.26,0,0,1-2.1-.5,3.42,3.42,0,0,1-1.42-1.57,5.3,5.3,0,0,1-.53-2.38,5.5,5.5,0,0,1,.48-2.29,3.42,3.42,0,0,1,1.39-1.6,4.2,4.2,0,0,1,2.18-.54,4.34,4.34,0,0,1,2.12.49,3.47,3.47,0,0,1,1.42,1.57,5.42,5.42,0,0,1,.51,2.37,5.49,5.49,0,0,1-.48,2.31A3.48,3.48,0,0,1,704,80,4.17,4.17,0,0,1,701.84,80.51Zm0-1.16a2.11,2.11,0,0,0,1.79-.86,4,4,0,0,0,.63-2.43,3.92,3.92,0,0,0-.64-2.42,2.29,2.29,0,0,0-3.56,0,4,4,0,0,0-.63,2.42,4,4,0,0,0,.63,2.43A2.09,2.09,0,0,0,701.84,79.35Z"/><path d="M708.08,80.31V79a10.56,10.56,0,0,1,2.72-3.42l.88-.79A6.37,6.37,0,0,0,713,73.17a3.15,3.15,0,0,0,.37-1.48,2,2,0,0,0-.59-1.52,2.25,2.25,0,0,0-1.59-.56,3.7,3.7,0,0,0-.83.09,4.68,4.68,0,0,0-.84.26,9.5,9.5,0,0,0-1.16.58V69.19a7.07,7.07,0,0,1,3.06-.73,3.66,3.66,0,0,1,2.63.91,3,3,0,0,1,1,2.28,3.59,3.59,0,0,1-.4,1.68,8.18,8.18,0,0,1-1.94,2.12l-.6.51a10.31,10.31,0,0,0-1.3,1.33,3.73,3.73,0,0,0-.84,1.67h5v1.35Z"/></g><g class="cls-2"><rect class="cls-6" x="622.38" y="102.01" width="52.78" height="32.08"/></g><g class="cls-22"><path d="M624.21,113.9v-.85a6.67,6.67,0,0,1,1.7-2.14l.55-.49a3.61,3.61,0,0,0,.83-1,2,2,0,0,0,.23-.92,1.2,1.2,0,0,0-.37-1,1.41,1.41,0,0,0-1-.35,3,3,0,0,0-.52.05,3.14,3.14,0,0,0-.52.17,5.3,5.3,0,0,0-.73.36v-.85a4.49,4.49,0,0,1,1.92-.45,2.29,2.29,0,0,1,1.64.57,1.89,1.89,0,0,1,.6,1.43,2.39,2.39,0,0,1-.25,1.05,5.1,5.1,0,0,1-1.22,1.32l-.37.32a5.83,5.83,0,0,0-.81.83,2.35,2.35,0,0,0-.53,1h3.15v.85Z"/><path d="M629.77,115.34l4-9.15h.79l-4,9.15Z"/><path d="M635.16,111.24v-.6h4v.6Z"/><path d="M626,129.5V123h-1.14v-.6l2.1-.18v7.29Z"/><path d="M630.72,129.44v-.9a4.62,4.62,0,0,0,1.62.41,1.59,1.59,0,0,0,1.13-.4,1.35,1.35,0,0,0,.44-1,1.47,1.47,0,0,0-.45-1.08,2.4,2.4,0,0,0-1.69-.44h-.38v-.65h.34a2.27,2.27,0,0,0,1.58-.42,1.35,1.35,0,0,0,.42-1,1,1,0,0,0-.34-.81,1.43,1.43,0,0,0-1-.3,3.78,3.78,0,0,0-1.58.41v-.84a4.54,4.54,0,0,1,1-.25,5.38,5.38,0,0,1,.68,0,2.55,2.55,0,0,1,1.69.46,1.5,1.5,0,0,1,.54,1.21,1.76,1.76,0,0,1-.15.75,1.87,1.87,0,0,1-.48.59,2.54,2.54,0,0,1-.87.48,2.92,2.92,0,0,1,1,.42,1.73,1.73,0,0,1,.52.65,2,2,0,0,1,.17.84,2.22,2.22,0,0,1-.58,1.52,2.42,2.42,0,0,1-1.94.67A7.63,7.63,0,0,1,630.72,129.44Z"/><path d="M637.75,125.76a2.27,2.27,0,0,1,.53-.54,2.05,2.05,0,0,1,.56-.26,1.91,1.91,0,0,1,.64-.1,2.16,2.16,0,0,1,1.12.3,1.92,1.92,0,0,1,.77.8,2.52,2.52,0,0,1,.26,1.14,2.84,2.84,0,0,1-.3,1.29,2.41,2.41,0,0,1-.83,1,2.28,2.28,0,0,1-1.26.34,2.09,2.09,0,0,1-1.92-1.05,5,5,0,0,1-.62-2.58,6.31,6.31,0,0,1,.3-2,3.16,3.16,0,0,1,.93-1.47,2.51,2.51,0,0,1,1.71-.54,4.63,4.63,0,0,1,.65,0,9.92,9.92,0,0,1,1,.23v.84a4.94,4.94,0,0,0-1.68-.39,1.47,1.47,0,0,0-1.4.82A4.5,4.5,0,0,0,637.75,125.76Zm2.92,1.53a1.89,1.89,0,0,0-.4-1.3,1.3,1.3,0,0,0-1-.43,1.66,1.66,0,0,0-1,.35,1.19,1.19,0,0,0-.5,1,2.82,2.82,0,0,0,.34,1.35,1.23,1.23,0,0,0,1.18.65,1.25,1.25,0,0,0,1-.43A1.83,1.83,0,0,0,640.67,127.29Z"/></g><g class="cls-2"><rect class="cls-6" x="622.38" y="144.24" width="52.78" height="32.08"/></g><g class="cls-23"><path d="M624.4,156.07v-.9a4.57,4.57,0,0,0,1.62.41,1.59,1.59,0,0,0,1.13-.4,1.34,1.34,0,0,0,.43-1,1.44,1.44,0,0,0-.44-1.07,2.39,2.39,0,0,0-1.69-.45h-.38V152h.33a2.25,2.25,0,0,0,1.58-.42,1.35,1.35,0,0,0,.42-1,1,1,0,0,0-.33-.8,1.38,1.38,0,0,0-1-.31,3.82,3.82,0,0,0-1.59.41V149a5.53,5.53,0,0,1,1-.25,5.27,5.27,0,0,1,.68,0,2.55,2.55,0,0,1,1.69.46,1.5,1.5,0,0,1,.54,1.21,1.6,1.6,0,0,1-.16.75,1.83,1.83,0,0,1-.47.59,2.5,2.5,0,0,1-.88.48,2.8,2.8,0,0,1,1.06.43,1.56,1.56,0,0,1,.51.65,2,2,0,0,1,.18.83,2.22,2.22,0,0,1-.58,1.52,2.45,2.45,0,0,1-1.94.67A7.56,7.56,0,0,1,624.4,156.07Z"/><path d="M629.77,157.57l4-9.15h.79l-4,9.15Z"/><path d="M635.16,153.48v-.6h4v.6Z"/><path d="M626,171.73v-6.51h-1.14v-.6l2.1-.18v7.29Z"/><path d="M633.47,171.73v-2h-3.25V169l3.25-4.45h.9v4.4h1v.78h-1v2Zm-2.32-2.83h2.38v-3.22Z"/><path d="M639.79,171.73v-2h-3.25V169l3.25-4.45h.91v4.4h1v.78h-1v2Zm-2.31-2.83h2.38v-3.22Z"/></g><g class="cls-2"><rect class="cls-6" x="702.39" y="240.72" width="52.78" height="32.08"/></g><g class="cls-24"><path d="M732.59,252.55v-.89a4.85,4.85,0,0,0,1.63.41,1.58,1.58,0,0,0,1.12-.41,1.3,1.3,0,0,0,.44-1,1.45,1.45,0,0,0-.45-1.07,2.38,2.38,0,0,0-1.69-.45h-.38v-.65h.34a2.25,2.25,0,0,0,1.58-.42,1.35,1.35,0,0,0,.42-1,1,1,0,0,0-.33-.8,1.43,1.43,0,0,0-1-.31,3.82,3.82,0,0,0-1.58.41v-.84a4.36,4.36,0,0,1,1.65-.29,2.57,2.57,0,0,1,1.69.46,1.52,1.52,0,0,1,.54,1.22,1.58,1.58,0,0,1-.16.74,2,2,0,0,1-.47.6,2.78,2.78,0,0,1-.88.47,2.74,2.74,0,0,1,1.05.43,1.65,1.65,0,0,1,.52.65,2,2,0,0,1,.18.84,2.27,2.27,0,0,1-.58,1.51,2.46,2.46,0,0,1-2,.67A7.63,7.63,0,0,1,732.59,252.55Z"/><path d="M741.07,252.79a2,2,0,0,1-1.4-.52,3.21,3.21,0,0,1-.86-1.41,6.58,6.58,0,0,1,0-3.73,3.12,3.12,0,0,1,.86-1.41,2.07,2.07,0,0,1,1.4-.52,2,2,0,0,1,1.39.52,3.12,3.12,0,0,1,.86,1.41,6.36,6.36,0,0,1,.27,1.87,6.22,6.22,0,0,1-.27,1.85,3,3,0,0,1-.86,1.41A2,2,0,0,1,741.07,252.79Zm0-.72a1.2,1.2,0,0,0,1.15-.85,7.06,7.06,0,0,0,0-4.45,1.2,1.2,0,0,0-2.29,0,7.06,7.06,0,0,0,0,4.45A1.18,1.18,0,0,0,741.06,252.07Z"/><path d="M744.29,254.05l4-9.15h.78l-4,9.15Z"/><path d="M749.68,250v-.6h4v.6Z"/><path d="M737.82,268.21V261.7h-1.15v-.6l2.11-.18v7.29Z"/><path d="M742.74,268.24v-.86a3.66,3.66,0,0,0,1.36.29,1.41,1.41,0,0,0,1.16-.47,1.67,1.67,0,0,0,.37-1.11,1.44,1.44,0,0,0-.54-1.18,2.66,2.66,0,0,0-1.7-.45,3.23,3.23,0,0,0-.53,0V261h3.65v.85H743.7v1.9a3.15,3.15,0,0,1,2.24.69,2.31,2.31,0,0,1,.72,1.72,2.2,2.2,0,0,1-.65,1.59,2.73,2.73,0,0,1-2,.66A5.89,5.89,0,0,1,742.74,268.24Z"/><path d="M749.56,264.47a2.72,2.72,0,0,1,.53-.54,2.2,2.2,0,0,1,.56-.26,2.31,2.31,0,0,1,.64-.1,2.17,2.17,0,0,1,1.13.3,1.89,1.89,0,0,1,.76.8,2.4,2.4,0,0,1,.27,1.14,2.8,2.8,0,0,1-.31,1.3,2.43,2.43,0,0,1-.82.94,2.23,2.23,0,0,1-1.27.34,2.06,2.06,0,0,1-1.91-1.05,4.93,4.93,0,0,1-.63-2.58,6.31,6.31,0,0,1,.3-1.95,3.24,3.24,0,0,1,.93-1.47,2.54,2.54,0,0,1,1.71-.54c.23,0,.44,0,.65,0a9.28,9.28,0,0,1,1,.23v.84a4.94,4.94,0,0,0-1.68-.39,1.45,1.45,0,0,0-1.39.82A4.5,4.5,0,0,0,749.56,264.47Zm2.92,1.53a1.87,1.87,0,0,0-.4-1.3,1.27,1.27,0,0,0-1-.43,1.78,1.78,0,0,0-1,.35,1.21,1.21,0,0,0-.5,1A2.83,2.83,0,0,0,750,267a1.21,1.21,0,0,0,1.17.66,1.24,1.24,0,0,0,1-.44A1.83,1.83,0,0,0,752.48,266Z"/></g><g class="cls-2"><rect class="cls-6" x="702.39" y="273.39" width="52.78" height="32.08"/></g><g class="cls-25"><path d="M732.59,285.23v-.9a4.85,4.85,0,0,0,1.63.41,1.57,1.57,0,0,0,1.12-.4,1.33,1.33,0,0,0,.44-1,1.47,1.47,0,0,0-.45-1.08,2.38,2.38,0,0,0-1.69-.45h-.38v-.65h.34a2.25,2.25,0,0,0,1.58-.42,1.39,1.39,0,0,0,.42-1,1,1,0,0,0-.33-.81,1.48,1.48,0,0,0-1-.3,3.79,3.79,0,0,0-1.58.4v-.84a4.45,4.45,0,0,1,1-.24,5.27,5.27,0,0,1,.68,0,2.63,2.63,0,0,1,1.69.45,1.54,1.54,0,0,1,.54,1.22,1.58,1.58,0,0,1-.16.74,1.76,1.76,0,0,1-.47.6,2.78,2.78,0,0,1-.88.48,2.92,2.92,0,0,1,1.05.42,1.65,1.65,0,0,1,.52.65,2,2,0,0,1,.18.84,2.29,2.29,0,0,1-.58,1.52,2.49,2.49,0,0,1-2,.66A7.54,7.54,0,0,1,732.59,285.23Z"/><path d="M740.52,285.28v-6.5h-1.14v-.61l2.11-.18v7.29Z"/><path d="M744.29,286.73l4-9.16h.78l-4,9.16Z"/><path d="M749.68,282.63V282h4v.6Z"/><path d="M737.82,300.88v-6.5h-1.15v-.61l2.11-.18v7.29Z"/><path d="M742.54,300.83v-.9a4.75,4.75,0,0,0,1.62.41,1.61,1.61,0,0,0,1.13-.4,1.36,1.36,0,0,0,.43-1,1.5,1.5,0,0,0-.44-1.08,2.41,2.41,0,0,0-1.69-.45h-.39v-.65h.34a2.2,2.2,0,0,0,1.58-.43,1.35,1.35,0,0,0,.42-1,1,1,0,0,0-.33-.81,1.46,1.46,0,0,0-1-.3,3.79,3.79,0,0,0-1.58.4v-.84a5.53,5.53,0,0,1,1-.25l.68,0a2.63,2.63,0,0,1,1.69.45,1.54,1.54,0,0,1,.54,1.22,1.58,1.58,0,0,1-.16.74,1.76,1.76,0,0,1-.47.6,2.87,2.87,0,0,1-.88.48,2.92,2.92,0,0,1,1,.42,1.57,1.57,0,0,1,.52.65,2,2,0,0,1,.18.84,2.29,2.29,0,0,1-.58,1.52,2.49,2.49,0,0,1-1.95.66A7.46,7.46,0,0,1,742.54,300.83Z"/><path d="M748.67,300.88V300a6.57,6.57,0,0,1,1.7-2.14l.55-.49a3.93,3.93,0,0,0,.83-1,1.9,1.9,0,0,0,.23-.92,1.24,1.24,0,0,0-.37-1,1.39,1.39,0,0,0-1-.34,2.24,2.24,0,0,0-.52.05,3.05,3.05,0,0,0-.52.16,7.2,7.2,0,0,0-.73.37v-.85a4.49,4.49,0,0,1,1.92-.45,2.29,2.29,0,0,1,1.64.57,1.87,1.87,0,0,1,.6,1.42,2.26,2.26,0,0,1-.25,1,5.09,5.09,0,0,1-1.22,1.33l-.37.31a6.54,6.54,0,0,0-.81.84,2.3,2.3,0,0,0-.53,1H753v.84Z"/></g><g class="cls-2"><rect class="cls-6" x="702.39" y="306.22" width="52.78" height="32.08"/></g><g class="cls-26"><path d="M732.59,318.06v-.9a4.85,4.85,0,0,0,1.63.41,1.58,1.58,0,0,0,1.12-.41,1.3,1.3,0,0,0,.44-1,1.47,1.47,0,0,0-.45-1.07,2.38,2.38,0,0,0-1.69-.45h-.38V314h.34a2.25,2.25,0,0,0,1.58-.42,1.35,1.35,0,0,0,.42-1,1,1,0,0,0-.33-.8,1.48,1.48,0,0,0-1-.31,3.82,3.82,0,0,0-1.58.41V311a4.36,4.36,0,0,1,1.65-.29,2.62,2.62,0,0,1,1.69.46,1.52,1.52,0,0,1,.54,1.22,1.58,1.58,0,0,1-.16.74,2,2,0,0,1-.47.6,2.78,2.78,0,0,1-.88.47,2.91,2.91,0,0,1,1.05.43,1.65,1.65,0,0,1,.52.65,2,2,0,0,1,.18.84,2.27,2.27,0,0,1-.58,1.51,2.46,2.46,0,0,1-2,.67A8.17,8.17,0,0,1,732.59,318.06Z"/><path d="M738.73,318.11v-.85a6.65,6.65,0,0,1,1.7-2.13l.55-.5a3.61,3.61,0,0,0,.83-1,2,2,0,0,0,.23-.92,1.23,1.23,0,0,0-.37-1,1.41,1.41,0,0,0-1-.35,2.24,2.24,0,0,0-.52.06,2.36,2.36,0,0,0-.52.16,5.57,5.57,0,0,0-.73.37v-.85a4.36,4.36,0,0,1,1.92-.46,2.29,2.29,0,0,1,1.64.57,1.89,1.89,0,0,1,.6,1.43,2.26,2.26,0,0,1-.25,1.05,4.94,4.94,0,0,1-1.22,1.32l-.37.32a6.42,6.42,0,0,0-.81.83,2.4,2.4,0,0,0-.53,1H743v.85Z"/><path d="M744.29,319.55l4-9.15h.78l-4,9.15Z"/><path d="M749.68,315.46v-.6h4v.6Z"/><path d="M737.82,333.71v-6.5h-1.15v-.61l2.11-.18v7.29Z"/><path d="M745.28,333.71v-2H742v-.72l3.25-4.46h.91v4.4h1v.78h-1v2ZM743,330.88h2.38v-3.22Z"/><path d="M751,333.89a2,2,0,0,1-1.39-.52,3,3,0,0,1-.86-1.41,6,6,0,0,1-.28-1.86,6.36,6.36,0,0,1,.27-1.87,3.05,3.05,0,0,1,.87-1.41,2,2,0,0,1,1.39-.52,2,2,0,0,1,1.39.52,3,3,0,0,1,.86,1.41,6.36,6.36,0,0,1,.28,1.87,6.23,6.23,0,0,1-.28,1.85,3.11,3.11,0,0,1-.85,1.41A2,2,0,0,1,751,333.89Zm0-.72a1.2,1.2,0,0,0,1.15-.85,7.06,7.06,0,0,0,0-4.45,1.2,1.2,0,0,0-2.29,0,7.06,7.06,0,0,0,0,4.45A1.19,1.19,0,0,0,751,333.17Z"/></g><g class="cls-2"><polyline class="cls-12" points="755.63 289.56 778.51 289.56 778.51 322.88 755.54 322.88"/><rect class="cls-13" x="621.89" y="1.11" width="133.77" height="44.55"/><rect class="cls-4" x="621.89" y="1.11" width="133.77" height="44.55"/></g><g class="cls-27"><path d="M677.5,29.73V28.14a3.44,3.44,0,0,1-1.17,1.34,3,3,0,0,1-1.65.45,2.86,2.86,0,0,1-2.42-1.15,4.91,4.91,0,0,1-.87-3,5.6,5.6,0,0,1,1-3.35A3.09,3.09,0,0,1,675,21.05a3.54,3.54,0,0,1,.93.12,3.2,3.2,0,0,1,.8.33,3.67,3.67,0,0,1,.76.71V17.4H679V29.73Zm0-6.46a4.52,4.52,0,0,0-1.26-.88,2.73,2.73,0,0,0-1-.18,1.8,1.8,0,0,0-1.67.95A4.87,4.87,0,0,0,673,25.6a4.22,4.22,0,0,0,.48,2.18,1.61,1.61,0,0,0,1.49.8,2.65,2.65,0,0,0,1.27-.35,5,5,0,0,0,1.23-1.05Z"/><path d="M682.14,19.71V18.17h1.54v1.54Zm0,10V21.25h1.54v8.48Z"/><path d="M690.54,29.73a4.73,4.73,0,0,1-1.23.2,2.46,2.46,0,0,1-1.81-.66,2.52,2.52,0,0,1-.68-1.88v-5h-1.06V21.25h1.06V19.71l1.54-.15v1.69h2.22v1.16h-2.22v4.7a1.92,1.92,0,0,0,.35,1.28,1.41,1.41,0,0,0,1.09.38,3.22,3.22,0,0,0,.74-.1Z"/><path d="M696.53,29.73a4.87,4.87,0,0,1-1.24.2,2.47,2.47,0,0,1-1.81-.66,2.51,2.51,0,0,1-.67-1.88v-5h-1.06V21.25h1.06V19.71l1.54-.15v1.69h2.22v1.16h-2.22v4.7a1.92,1.92,0,0,0,.34,1.28,1.44,1.44,0,0,0,1.1.38,3.22,3.22,0,0,0,.74-.1Z"/><path d="M702.11,29.93a4.3,4.3,0,0,1-2.11-.5,3.44,3.44,0,0,1-1.42-1.56,5.33,5.33,0,0,1-.52-2.38,5.51,5.51,0,0,1,.48-2.3,3.45,3.45,0,0,1,1.38-1.6,4.23,4.23,0,0,1,2.19-.54,4.3,4.3,0,0,1,2.11.5,3.44,3.44,0,0,1,1.42,1.56,5.33,5.33,0,0,1,.52,2.38,5.41,5.41,0,0,1-.49,2.31,3.43,3.43,0,0,1-1.38,1.59A4.2,4.2,0,0,1,702.11,29.93Zm0-1.16a2.09,2.09,0,0,0,1.78-.85,4,4,0,0,0,.64-2.43,4,4,0,0,0-.64-2.43,2.1,2.1,0,0,0-1.78-.85,2.07,2.07,0,0,0-1.78.85,4,4,0,0,0-.64,2.43,4,4,0,0,0,.64,2.43A2.07,2.07,0,0,0,702.11,28.77Z"/></g><g class="cls-2"><rect class="cls-6" x="702.39" y="102.01" width="52.78" height="32.08"/></g><g class="cls-28"><path d="M740.52,113.9v-6.51h-1.14v-.6l2.11-.18v7.29Z"/><path d="M744.29,115.34l4-9.15h.78l-4,9.15Z"/><path d="M749.68,111.24v-.6h4v.6Z"/><path d="M737.82,129.5V123h-1.15v-.6l2.11-.18v7.29Z"/><path d="M742.35,129.5v-.85a6.67,6.67,0,0,1,1.7-2.14l.55-.49a3.61,3.61,0,0,0,.83-1,2,2,0,0,0,.23-.92,1.2,1.2,0,0,0-.37-1,1.42,1.42,0,0,0-1-.35,2.84,2.84,0,0,0-.51,0,3.56,3.56,0,0,0-.53.17,5.92,5.92,0,0,0-.72.36v-.85a4.48,4.48,0,0,1,1.91-.45,2.27,2.27,0,0,1,1.64.57,1.87,1.87,0,0,1,.61,1.43,2.39,2.39,0,0,1-.25,1,5.29,5.29,0,0,1-1.22,1.32l-.37.32a6.46,6.46,0,0,0-.82.83,2.43,2.43,0,0,0-.52,1h3.15v.85Z"/><path d="M750.14,125.56a2.58,2.58,0,0,1-.87-.85,1.61,1.61,0,0,1-.19-.78,1.7,1.7,0,0,1,.59-1.32,2.3,2.3,0,0,1,1.58-.52,2.27,2.27,0,0,1,1.45.43,1.37,1.37,0,0,1,.55,1.13,1.79,1.79,0,0,1-.28.94,3.4,3.4,0,0,1-1.06,1,3.56,3.56,0,0,1,1.27.93,1.88,1.88,0,0,1,.36,1.13,1.91,1.91,0,0,1-.65,1.45,2.57,2.57,0,0,1-1.79.61,2.52,2.52,0,0,1-1.78-.58,1.84,1.84,0,0,1-.61-1.38,2.18,2.18,0,0,1,.34-1.14A3,3,0,0,1,750.14,125.56Zm.53.39a2.76,2.76,0,0,0-.85.88,1.8,1.8,0,0,0-.15.73,1.34,1.34,0,0,0,.41,1,1.51,1.51,0,0,0,1,.37,1.64,1.64,0,0,0,1-.31,1,1,0,0,0,.42-.86,1.08,1.08,0,0,0-.22-.69,3.93,3.93,0,0,0-1-.74Zm.7-.69a2.78,2.78,0,0,0,.74-.7,1.36,1.36,0,0,0,.27-.78.87.87,0,0,0-.34-.7,1.37,1.37,0,0,0-.89-.27,1.31,1.31,0,0,0-.88.28.87.87,0,0,0-.32.66,1,1,0,0,0,.26.67A4.45,4.45,0,0,0,751.37,125.26Z"/></g><g class="cls-2"><rect class="cls-6" x="702.39" y="144.24" width="52.78" height="32.08"/></g><g class="cls-29"><path d="M732.41,156.13v-.85a6.63,6.63,0,0,1,1.7-2.14l.55-.49a3.8,3.8,0,0,0,.83-1,2,2,0,0,0,.23-.92,1.25,1.25,0,0,0-.37-1,1.42,1.42,0,0,0-1-.35,2.76,2.76,0,0,0-.51.05,3.23,3.23,0,0,0-.53.17,5.28,5.28,0,0,0-.72.36v-.85a4.48,4.48,0,0,1,1.91-.45,2.27,2.27,0,0,1,1.64.57,1.89,1.89,0,0,1,.6,1.43,2.38,2.38,0,0,1-.24,1.05,5.12,5.12,0,0,1-1.22,1.32l-.37.32a6.46,6.46,0,0,0-.82.83,2.32,2.32,0,0,0-.52,1h3.14v.85Z"/><path d="M739.41,156.13a5.81,5.81,0,0,1,.47-1.62,16.3,16.3,0,0,1,.85-1.53l2-3.18H739v-.9h4.63v.9c-.62.92-1.14,1.75-1.54,2.48a21.82,21.82,0,0,0-1,2.07,7.16,7.16,0,0,0-.55,1.78Z"/><path d="M744.29,157.57l4-9.15h.78l-4,9.15Z"/><path d="M749.68,153.48v-.6h4v.6Z"/><path d="M737.82,171.73v-6.51h-1.15v-.6l2.11-.18v7.29Z"/><path d="M743,171.73a6.16,6.16,0,0,1,.47-1.62,16.68,16.68,0,0,1,.86-1.53l2-3.18H742.6v-.9h4.64v.9c-.62.92-1.14,1.75-1.54,2.48a22,22,0,0,0-1,2.07,7.11,7.11,0,0,0-.54,1.78Z"/><path d="M748.67,171.73v-.85a6.78,6.78,0,0,1,1.7-2.14l.55-.49a3.61,3.61,0,0,0,.83-1,1.88,1.88,0,0,0,.23-.92,1.21,1.21,0,0,0-.37-1,1.39,1.39,0,0,0-1-.35,3,3,0,0,0-.52.05,3.14,3.14,0,0,0-.52.17,5.3,5.3,0,0,0-.73.36v-.85a4.49,4.49,0,0,1,1.92-.45,2.29,2.29,0,0,1,1.64.57,1.89,1.89,0,0,1,.6,1.43,2.26,2.26,0,0,1-.25,1.05,4.94,4.94,0,0,1-1.22,1.32l-.37.32a5.83,5.83,0,0,0-.81.83,2.35,2.35,0,0,0-.53,1H753v.85Z"/></g><g class="cls-2"><rect class="cls-6" x="702.39" y="208.74" width="52.78" height="32.08"/></g><g class="cls-30"><path d="M732.41,220.63v-.84a6.53,6.53,0,0,1,1.7-2.14l.55-.49a4.16,4.16,0,0,0,.83-1,2,2,0,0,0,.23-.92,1.27,1.27,0,0,0-.37-1,1.41,1.41,0,0,0-1-.34,2.76,2.76,0,0,0-.51.05,3.23,3.23,0,0,0-.53.17,5.28,5.28,0,0,0-.72.36v-.85a4.48,4.48,0,0,1,1.91-.45,2.27,2.27,0,0,1,1.64.57,1.89,1.89,0,0,1,.6,1.42,2.31,2.31,0,0,1-.24,1.05,5.29,5.29,0,0,1-1.22,1.33l-.37.32a6.46,6.46,0,0,0-.82.83,2.28,2.28,0,0,0-.52,1h3.14v.84Z"/><path d="M739,220.59v-.81a4.92,4.92,0,0,0,1.56.31,1.65,1.65,0,0,0,1-.31,2,2,0,0,0,.65-1,4.8,4.8,0,0,0,.24-1.55,2.65,2.65,0,0,1-.56.56,1.75,1.75,0,0,1-.51.26,2,2,0,0,1-.59.09,2.14,2.14,0,0,1-1.12-.32,2.35,2.35,0,0,1-.79-.84,2.47,2.47,0,0,1-.28-1.15,2.92,2.92,0,0,1,.31-1.29,2.42,2.42,0,0,1,.83-.95,2.25,2.25,0,0,1,1.24-.33,2.08,2.08,0,0,1,1.92,1,4.79,4.79,0,0,1,.62,2.49,6,6,0,0,1-.37,2.09,3.22,3.22,0,0,1-1,1.47,2.72,2.72,0,0,1-1.67.5A6.39,6.39,0,0,1,739,220.59Zm.58-5a2.09,2.09,0,0,0,.38,1.3,1.23,1.23,0,0,0,1,.48,1.56,1.56,0,0,0,1-.38,1.26,1.26,0,0,0,.48-1,2.88,2.88,0,0,0-.21-1.08,1.65,1.65,0,0,0-.53-.75A1.35,1.35,0,0,0,741,214a1.22,1.22,0,0,0-1,.45A2,2,0,0,0,739.62,215.63Z"/><path d="M744.29,222.08l4-9.16h.78l-4,9.16Z"/><path d="M749.68,218v-.6h4v.6Z"/><path d="M737.82,236.24v-6.51h-1.15v-.6l2.11-.18v7.29Z"/><path d="M745.28,236.24v-2.05H742v-.73l3.25-4.45h.91v4.39h1v.79h-1v2.05ZM743,233.4h2.38v-3.21Z"/><path d="M750.14,232.3a2.58,2.58,0,0,1-.87-.85,1.61,1.61,0,0,1-.19-.78,1.7,1.7,0,0,1,.59-1.32,2.3,2.3,0,0,1,1.58-.52,2.27,2.27,0,0,1,1.45.43,1.36,1.36,0,0,1,.55,1.12,1.8,1.8,0,0,1-.28,1,3.4,3.4,0,0,1-1.06,1,3.56,3.56,0,0,1,1.27.93,1.88,1.88,0,0,1,.36,1.13,1.92,1.92,0,0,1-.65,1.45,2.57,2.57,0,0,1-1.79.61,2.52,2.52,0,0,1-1.78-.58,1.84,1.84,0,0,1-.61-1.38,2.18,2.18,0,0,1,.34-1.14A3,3,0,0,1,750.14,232.3Zm.53.39a2.76,2.76,0,0,0-.85.88,1.77,1.77,0,0,0-.15.73,1.32,1.32,0,0,0,.41,1,1.47,1.47,0,0,0,1,.38,1.64,1.64,0,0,0,1-.31,1,1,0,0,0,.42-.86,1.08,1.08,0,0,0-.22-.69,3.93,3.93,0,0,0-1-.74Zm.7-.69a2.78,2.78,0,0,0,.74-.7,1.36,1.36,0,0,0,.27-.78.87.87,0,0,0-.34-.7,1.37,1.37,0,0,0-.89-.27,1.26,1.26,0,0,0-.88.28.87.87,0,0,0-.32.66,1.07,1.07,0,0,0,.26.67A4.45,4.45,0,0,0,751.37,232Z"/></g><g class="cls-2"><rect class="cls-6" x="702.39" y="177.06" width="52.78" height="32.08"/></g><g class="cls-31"><path d="M732.41,189v-.84a6.43,6.43,0,0,1,1.7-2.14l.55-.49a4.16,4.16,0,0,0,.83-1,2,2,0,0,0,.23-.92,1.27,1.27,0,0,0-.37-1,1.41,1.41,0,0,0-1-.34,2.76,2.76,0,0,0-.51,0,3.14,3.14,0,0,0-.53.16,7.22,7.22,0,0,0-.72.37V182a4.48,4.48,0,0,1,1.91-.45,2.27,2.27,0,0,1,1.64.57,1.87,1.87,0,0,1,.6,1.42,2.38,2.38,0,0,1-.24,1.05,5.29,5.29,0,0,1-1.22,1.33l-.37.31a7.32,7.32,0,0,0-.82.84,2.28,2.28,0,0,0-.52,1h3.14V189Z"/><path d="M740.2,185a2.58,2.58,0,0,1-.87-.85,1.61,1.61,0,0,1-.19-.78,1.7,1.7,0,0,1,.59-1.32,2.3,2.3,0,0,1,1.58-.52,2.27,2.27,0,0,1,1.45.43,1.36,1.36,0,0,1,.55,1.12,1.8,1.8,0,0,1-.28,1,3.46,3.46,0,0,1-1.07,1,3.41,3.41,0,0,1,1.28.93,1.88,1.88,0,0,1,.36,1.13,1.94,1.94,0,0,1-.65,1.45,2.57,2.57,0,0,1-1.79.6,2.48,2.48,0,0,1-1.78-.58,1.81,1.81,0,0,1-.61-1.38,2.26,2.26,0,0,1,.33-1.14A3,3,0,0,1,740.2,185Zm.52.39a2.69,2.69,0,0,0-.84.87,1.85,1.85,0,0,0-.15.74,1.32,1.32,0,0,0,.41,1,1.47,1.47,0,0,0,1,.38,1.64,1.64,0,0,0,1-.31,1,1,0,0,0,.42-.87,1.13,1.13,0,0,0-.22-.68,3.93,3.93,0,0,0-1-.74Zm.71-.7a2.63,2.63,0,0,0,.74-.7,1.32,1.32,0,0,0,.27-.78.85.85,0,0,0-.34-.69,1.37,1.37,0,0,0-.89-.27,1.26,1.26,0,0,0-.88.28.87.87,0,0,0-.32.66,1.07,1.07,0,0,0,.26.67A4.31,4.31,0,0,0,741.43,184.71Z"/><path d="M744.29,190.4l4-9.16h.78l-4,9.16Z"/><path d="M749.68,186.3v-.6h4v.6Z"/><path d="M737.82,204.55v-6.5h-1.15v-.61l2.11-.18v7.29Z"/><path d="M743.24,200.81a2.2,2.2,0,0,1,.53-.53,1.93,1.93,0,0,1,.56-.27,2.31,2.31,0,0,1,1.76.2,1.91,1.91,0,0,1,.77.8,2.39,2.39,0,0,1,.26,1.14,2.86,2.86,0,0,1-.3,1.3,2.44,2.44,0,0,1-.82.94,2.23,2.23,0,0,1-1.27.34,2.1,2.1,0,0,1-1.92-1,5,5,0,0,1-.62-2.59,6.3,6.3,0,0,1,.3-1.94,3.14,3.14,0,0,1,.93-1.48,2.55,2.55,0,0,1,1.71-.53,4.63,4.63,0,0,1,.65,0,7.24,7.24,0,0,1,1,.23v.84a4.94,4.94,0,0,0-1.68-.39,1.48,1.48,0,0,0-1.4.81A4.56,4.56,0,0,0,743.24,200.81Zm2.92,1.53a1.83,1.83,0,0,0-.4-1.29,1.28,1.28,0,0,0-1-.44,1.72,1.72,0,0,0-1,.36,1.18,1.18,0,0,0-.5,1,2.77,2.77,0,0,0,.35,1.35,1.35,1.35,0,0,0,2.15.21A1.83,1.83,0,0,0,746.16,202.34Z"/><path d="M751.61,204.55v-2h-3.25v-.73l3.25-4.45h.9v4.39h1v.79h-1v2Zm-2.32-2.83h2.38v-3.21Z"/></g><g class="cls-2"><rect class="cls-6" x="622.38" y="176.5" width="52.78" height="32.08"/></g><g class="cls-32"><path d="M627.15,188.39v-2h-3.26v-.72l3.26-4.46h.9v4.4h1v.78h-1v2Zm-2.32-2.83h2.38v-3.22Z"/><path d="M629.77,189.84l4-9.16h.79l-4,9.16Z"/><path d="M635.16,185.74v-.6h4v.6Z"/><path d="M626,204v-6.5h-1.14v-.61l2.1-.18V204Z"/><path d="M630.92,204v-.86a3.71,3.71,0,0,0,1.37.29,1.41,1.41,0,0,0,1.15-.46,1.72,1.72,0,0,0,.38-1.11,1.47,1.47,0,0,0-.55-1.19,2.64,2.64,0,0,0-1.7-.44l-.53,0v-3.52h3.66v.85h-2.82v1.9a3.11,3.11,0,0,1,2.24.69,2.31,2.31,0,0,1,.72,1.72,2.18,2.18,0,0,1-.65,1.59,2.71,2.71,0,0,1-2,.66A6,6,0,0,1,630.92,204Z"/><path d="M636.86,204v-.84a6.43,6.43,0,0,1,1.7-2.14l.55-.5a4,4,0,0,0,.83-1,2.06,2.06,0,0,0,.23-.93,1.26,1.26,0,0,0-.37-.95,1.41,1.41,0,0,0-1-.34,2.1,2.1,0,0,0-.51.05,3.14,3.14,0,0,0-.53.16,7.22,7.22,0,0,0-.72.37V197a4.35,4.35,0,0,1,1.91-.46,2.27,2.27,0,0,1,1.64.57,1.91,1.91,0,0,1,.6,1.43,2.38,2.38,0,0,1-.24,1,5.12,5.12,0,0,1-1.22,1.32l-.37.32a8.08,8.08,0,0,0-.82.83,2.36,2.36,0,0,0-.52,1.05h3.14V204Z"/></g><g class="cls-2"><rect class="cls-6" x="622.38" y="209.04" width="52.78" height="32.08"/></g><g class="cls-33"><path d="M624.6,221v-.86a3.68,3.68,0,0,0,1.36.28,1.39,1.39,0,0,0,1.16-.46,1.69,1.69,0,0,0,.37-1.11,1.48,1.48,0,0,0-.54-1.19,2.72,2.72,0,0,0-1.7-.44l-.53,0V213.7h3.66v.84h-2.82v1.9a3.13,3.13,0,0,1,2.24.7,2.28,2.28,0,0,1,.72,1.72,2.2,2.2,0,0,1-.65,1.59,2.73,2.73,0,0,1-2,.66A6,6,0,0,1,624.6,221Z"/><path d="M629.77,222.37l4-9.15h.79l-4,9.15Z"/><path d="M635.16,218.27v-.6h4v.6Z"/><path d="M626,236.53V230h-1.14v-.6l2.1-.18v7.29Z"/><path d="M631.42,232.79a2.49,2.49,0,0,1,.54-.54,2.2,2.2,0,0,1,1.2-.36,2.16,2.16,0,0,1,1.12.3,2,2,0,0,1,.77.8,2.52,2.52,0,0,1,.26,1.14,2.73,2.73,0,0,1-.31,1.29,2.39,2.39,0,0,1-.82,1,2.29,2.29,0,0,1-1.27.34,2.07,2.07,0,0,1-1.91-1.05,4.93,4.93,0,0,1-.63-2.58,6,6,0,0,1,.31-2,3.23,3.23,0,0,1,.92-1.47,2.54,2.54,0,0,1,1.71-.54,4.54,4.54,0,0,1,.65,0,8.72,8.72,0,0,1,1,.23v.84a4.89,4.89,0,0,0-1.67-.39,1.46,1.46,0,0,0-1.4.82A4.5,4.5,0,0,0,631.42,232.79Zm2.92,1.53A1.91,1.91,0,0,0,634,233a1.3,1.3,0,0,0-1-.43,1.78,1.78,0,0,0-1,.35,1.21,1.21,0,0,0-.5,1,2.83,2.83,0,0,0,.35,1.35,1.36,1.36,0,0,0,2.15.22A1.78,1.78,0,0,0,634.34,234.32Z"/><path d="M639.19,236.71a2,2,0,0,1-1.39-.52,3.12,3.12,0,0,1-.86-1.41,6.35,6.35,0,0,1,0-3.73,3,3,0,0,1,.86-1.41,2,2,0,0,1,1.39-.52,2,2,0,0,1,1.4.52,3.16,3.16,0,0,1,.86,1.41,6.54,6.54,0,0,1,0,3.72,3,3,0,0,1-.86,1.41A2,2,0,0,1,639.19,236.71Zm0-.73a1.2,1.2,0,0,0,1.15-.84,7.06,7.06,0,0,0,0-4.45,1.2,1.2,0,0,0-2.3,0,7.25,7.25,0,0,0,0,4.45A1.2,1.2,0,0,0,639.19,236Z"/></g><g class="cls-2"><polyline class="cls-12" points="755.63 224.11 778.51 224.11 778.51 257.43 755.54 257.43"/><polyline class="cls-12" points="755.63 160.56 778.51 160.56 778.51 193.88 755.54 193.88"/><path class="cls-12" d="M622,118H498.91"/></g><g class="cls-34"><rect class="cls-35" x="510.65" y="101.63" width="5.91" height="12.43"/></g><g class="cls-36"><rect class="cls-35" x="518.35" y="104.86" width="5.91" height="9.19"/></g><g class="cls-37"><rect class="cls-35" x="526.06" y="101.63" width="5.91" height="12.43"/></g><g class="cls-38"><rect class="cls-35" x="533.76" y="104.86" width="5.91" height="9.19"/></g><g class="cls-39"><rect class="cls-35" x="541.46" y="101.63" width="5.91" height="12.43"/></g><g class="cls-40"><rect class="cls-35" x="549.17" y="104.86" width="5.91" height="9.19"/></g><g class="cls-41"><rect class="cls-35" x="556.87" y="101.63" width="5.91" height="12.43"/></g><g class="cls-42"><rect class="cls-35" x="564.58" y="104.86" width="5.91" height="9.19"/></g><g class="cls-43"><rect class="cls-35" x="572.28" y="101.63" width="5.91" height="12.43"/></g><g class="cls-44"><rect class="cls-35" x="579.99" y="104.86" width="5.91" height="9.19"/></g><g class="cls-45"><rect class="cls-35" x="587.69" y="101.63" width="5.91" height="12.43"/></g><g class="cls-46"><rect class="cls-35" x="595.4" y="104.86" width="5.91" height="9.19"/></g><g class="cls-47"><rect class="cls-35" x="603.1" y="101.63" width="5.91" height="12.43"/></g><g class="cls-2"><rect class="cls-4" x="109.24" y="54.69" width="132.54" height="295.91"/></g><g class="cls-48"><path d="M152.73,80.31a4.73,4.73,0,0,1-1.23.2,2.46,2.46,0,0,1-1.81-.66A2.53,2.53,0,0,1,149,78V73H148V71.83H149V70.29l1.53-.15v1.69h2.22V73h-2.22v4.71A1.89,1.89,0,0,0,150.9,79a1.38,1.38,0,0,0,1.09.39,3.89,3.89,0,0,0,.74-.1Z"/><path d="M158.32,80.51a4.3,4.3,0,0,1-2.11-.5,3.42,3.42,0,0,1-1.42-1.57,5.3,5.3,0,0,1-.52-2.38,5.49,5.49,0,0,1,.47-2.29,3.42,3.42,0,0,1,1.39-1.6,4.23,4.23,0,0,1,2.19-.54,4.33,4.33,0,0,1,2.11.49,3.42,3.42,0,0,1,1.42,1.57,5.42,5.42,0,0,1,.52,2.37,5.35,5.35,0,0,1-.49,2.31,3.42,3.42,0,0,1-1.39,1.6A4.13,4.13,0,0,1,158.32,80.51Zm0-1.16a2.1,2.1,0,0,0,1.79-.86,4,4,0,0,0,.63-2.43,4,4,0,0,0-.63-2.42,2.3,2.3,0,0,0-3.57,0,4,4,0,0,0-.63,2.42,4,4,0,0,0,.63,2.43A2.11,2.11,0,0,0,158.31,79.35Z"/><path d="M165.05,80.31V73h-1.2V71.83h1.2v-1a4,4,0,0,1,.27-1.64,2.4,2.4,0,0,1,.88-1,3,3,0,0,1,1.61-.39,6.69,6.69,0,0,1,1.76.26v1.22a5.76,5.76,0,0,0-1.66-.32,1.76,1.76,0,0,0-.66.11.93.93,0,0,0-.48.4,2.59,2.59,0,0,0-.18,1.2v1.18h2.12V73h-2.12v7.33Z"/><path d="M170.65,70.29V68.75h1.54v1.54Zm0,10V71.83h1.54v8.48Z"/><path d="M175.27,80.31V71.83h1.54v1.58a4.36,4.36,0,0,1,1.37-1.31,3.07,3.07,0,0,1,1.61-.47,2.37,2.37,0,0,1,1.75.68,2.59,2.59,0,0,1,.67,1.9v6.1h-1.54v-5.6a2.85,2.85,0,0,0-.15-1.16,1.1,1.1,0,0,0-.44-.44,1.27,1.27,0,0,0-.6-.15,2.69,2.69,0,0,0-1.23.35,4.71,4.71,0,0,0-1.44,1.5v5.5Z"/><path d="M188.58,80.51a4.3,4.3,0,0,1-2.11-.5,3.47,3.47,0,0,1-1.42-1.57,5.43,5.43,0,0,1-.52-2.38,5.5,5.5,0,0,1,.48-2.29,3.42,3.42,0,0,1,1.39-1.6,4.17,4.17,0,0,1,2.18-.54,4.3,4.3,0,0,1,2.11.49,3.37,3.37,0,0,1,1.42,1.57,5.28,5.28,0,0,1,.52,2.37,5.49,5.49,0,0,1-.48,2.31,3.53,3.53,0,0,1-1.39,1.6A4.17,4.17,0,0,1,188.58,80.51Zm0-1.16a2.08,2.08,0,0,0,1.78-.86,4,4,0,0,0,.64-2.43,3.92,3.92,0,0,0-.64-2.42,2.29,2.29,0,0,0-3.56,0,4,4,0,0,0-.64,2.42,4,4,0,0,0,.64,2.43A2.08,2.08,0,0,0,188.58,79.35Z"/><path d="M195.12,80.22V78.79a7.72,7.72,0,0,0,2.59.65,2.57,2.57,0,0,0,1.81-.64,2.2,2.2,0,0,0,.7-1.67,2.34,2.34,0,0,0-.72-1.72,3.83,3.83,0,0,0-2.7-.72h-.61v-1h.54a3.57,3.57,0,0,0,2.52-.68,2.17,2.17,0,0,0,.68-1.58,1.64,1.64,0,0,0-.54-1.29,2.29,2.29,0,0,0-1.59-.49,6.11,6.11,0,0,0-2.53.65V68.92a8.21,8.21,0,0,1,1.55-.4,10.09,10.09,0,0,1,1.09-.06,4.13,4.13,0,0,1,2.7.73,2.43,2.43,0,0,1,.87,2,2.78,2.78,0,0,1-.25,1.19,3,3,0,0,1-.76,1,4.23,4.23,0,0,1-1.41.76,4.79,4.79,0,0,1,1.69.68,2.8,2.8,0,0,1,.83,1,3.23,3.23,0,0,1,.28,1.35,3.58,3.58,0,0,1-.93,2.42,4,4,0,0,1-3.11,1.07A12.45,12.45,0,0,1,195.12,80.22Z"/></g><g class="cls-2"><rect class="cls-6" x="109.12" y="102.01" width="52.78" height="32.08"/></g><g class="cls-49"><path d="M112.74,113.9v-6.51h-1.15v-.6l2.11-.18v7.29Z"/><path d="M116.5,115.34l4-9.15h.79l-4,9.15Z"/><path d="M121.9,111.24v-.6h4v.6Z"/><path d="M112.74,129.5V123h-1.15v-.6l2.11-.18v7.29Z"/><path d="M117.27,129.5v-.85a6.67,6.67,0,0,1,1.7-2.14l.55-.49a3.61,3.61,0,0,0,.83-1,2,2,0,0,0,.23-.92,1.2,1.2,0,0,0-.37-1,1.41,1.41,0,0,0-1-.35,3,3,0,0,0-.52,0,3.14,3.14,0,0,0-.52.17,5.3,5.3,0,0,0-.73.36v-.85a4.49,4.49,0,0,1,1.92-.45,2.29,2.29,0,0,1,1.64.57,1.89,1.89,0,0,1,.6,1.43,2.26,2.26,0,0,1-.25,1,5.1,5.1,0,0,1-1.22,1.32l-.37.32a5.83,5.83,0,0,0-.81.83,2.35,2.35,0,0,0-.53,1h3.15v.85Z"/><path d="M125.06,125.56a2.68,2.68,0,0,1-.87-.85,1.73,1.73,0,0,1-.19-.78,1.68,1.68,0,0,1,.6-1.32,2.64,2.64,0,0,1,3-.09,1.37,1.37,0,0,1,.55,1.13,1.79,1.79,0,0,1-.28.94,3.4,3.4,0,0,1-1.06,1,3.47,3.47,0,0,1,1.27.93,1.95,1.95,0,0,1-.29,2.58,2.55,2.55,0,0,1-1.79.61,2.52,2.52,0,0,1-1.78-.58,1.84,1.84,0,0,1-.61-1.38,2.18,2.18,0,0,1,.34-1.14A3,3,0,0,1,125.06,125.56Zm.53.39a2.7,2.7,0,0,0-.84.88,1.66,1.66,0,0,0-.16.73,1.31,1.31,0,0,0,.42,1,1.47,1.47,0,0,0,1,.37,1.61,1.61,0,0,0,1-.31,1,1,0,0,0,.42-.86,1.08,1.08,0,0,0-.22-.69,3.74,3.74,0,0,0-1-.74Zm.7-.69a3,3,0,0,0,.75-.7,1.42,1.42,0,0,0,.26-.78.89.89,0,0,0-.33-.7,1.39,1.39,0,0,0-.89-.27,1.32,1.32,0,0,0-.89.28.87.87,0,0,0-.32.66,1,1,0,0,0,.26.67A4.45,4.45,0,0,0,126.29,125.26Z"/></g><g class="cls-2"><rect class="cls-6" x="189.12" y="144.24" width="52.78" height="32.08"/></g><g class="cls-50"><path d="M225.65,156.07v-.9a4.61,4.61,0,0,0,1.63.41,1.61,1.61,0,0,0,1.13-.4,1.34,1.34,0,0,0,.43-1,1.48,1.48,0,0,0-.44-1.07,2.41,2.41,0,0,0-1.69-.45h-.39V152h.34a2.25,2.25,0,0,0,1.58-.42,1.35,1.35,0,0,0,.42-1,1,1,0,0,0-.33-.8,1.43,1.43,0,0,0-1-.31,3.82,3.82,0,0,0-1.58.41V149a5.53,5.53,0,0,1,1-.25,5.27,5.27,0,0,1,.68,0,2.57,2.57,0,0,1,1.69.46,1.5,1.5,0,0,1,.54,1.21,1.6,1.6,0,0,1-.16.75,1.83,1.83,0,0,1-.47.59,2.5,2.5,0,0,1-.88.48,2.74,2.74,0,0,1,1,.43,1.51,1.51,0,0,1,.52.65,2,2,0,0,1,.18.83,2.27,2.27,0,0,1-.58,1.52,2.46,2.46,0,0,1-1.95.67A7.71,7.71,0,0,1,225.65,156.07Z"/><path d="M231,157.57l4-9.15h.79l-4,9.15Z"/><path d="M236.42,153.48v-.6h4v.6Z"/><path d="M224.56,171.73v-6.51h-1.15v-.6l2.11-.18v7.29Z"/><path d="M232,171.73v-2h-3.25V169L232,164.5h.91v4.4h1v.78h-1v2Zm-2.31-2.83h2.38v-3.22Z"/><path d="M238.35,171.73v-2h-3.26V169l3.26-4.45h.9v4.4h1v.78h-1v2ZM236,168.9h2.38v-3.22Z"/></g><g class="cls-2"><rect class="cls-13" x="108.63" y="1.11" width="133.77" height="44.55"/><rect class="cls-4" x="108.63" y="1.11" width="133.77" height="44.55"/></g><g class="cls-51"><path d="M140.67,29.46a9.75,9.75,0,0,1-2.69.47,4,4,0,0,1-3.15-1.33,4.66,4.66,0,0,1-1.15-3.15,5.26,5.26,0,0,1,.51-2.27,3.67,3.67,0,0,1,1.32-1.6,3.51,3.51,0,0,1,1.93-.53,3,3,0,0,1,2.38,1.06,4.8,4.8,0,0,1,.89,3.16v.46h-5.45a4.41,4.41,0,0,0,.49,1.74,2.7,2.7,0,0,0,1,1,3.21,3.21,0,0,0,1.55.34,6.09,6.09,0,0,0,.95-.08,10.06,10.06,0,0,0,1.45-.44Zm-5.35-4.88h3.85a2.62,2.62,0,0,0-.51-1.82,1.7,1.7,0,0,0-1.31-.55,1.78,1.78,0,0,0-1.41.59A3,3,0,0,0,135.32,24.58Z"/><path d="M145,29.73l-3.16-8.48h1.54l2.47,6.6,2.61-6.6h1.43l-3.35,8.48Z"/><path d="M156,28.66a5.57,5.57,0,0,1-1.37.95,3.16,3.16,0,0,1-1.33.32,2.76,2.76,0,0,1-1.69-.59,2,2,0,0,1-.79-1.74,2.5,2.5,0,0,1,1.1-2.07,5.9,5.9,0,0,1,3.49-.81h.37v-1a1.81,1.81,0,0,0-.17-.89,1.12,1.12,0,0,0-.52-.43,2.1,2.1,0,0,0-.88-.16,5.76,5.76,0,0,0-2.65.75V21.69a8,8,0,0,1,3-.64,4,4,0,0,1,1.4.24,2.19,2.19,0,0,1,1,.75,2.77,2.77,0,0,1,.38,1.65v3.85a2.32,2.32,0,0,0,.11.86.73.73,0,0,0,.28.34.77.77,0,0,0,.43.12l.29,0,.11.85a2.58,2.58,0,0,1-1.15.25,1.43,1.43,0,0,1-.82-.27A1.69,1.69,0,0,1,156,28.66Zm-.22-.84v-2.2h-.51a4.22,4.22,0,0,0-2.07.47,1.41,1.41,0,0,0-.84,1.27,1.26,1.26,0,0,0,.41.94,1.41,1.41,0,0,0,1,.38,2.65,2.65,0,0,0,1-.21A5,5,0,0,0,155.77,27.82Z"/><path d="M160.38,29.73V17.4h1.54V29.73Z"/><path d="M165,29.73V27.8H167v1.93Z"/><path d="M175.13,32.82V21.25h1.54v1.59a3.47,3.47,0,0,1,1.18-1.34,3,3,0,0,1,1.64-.45,2.82,2.82,0,0,1,2.41,1.16,5,5,0,0,1,.86,3,6.6,6.6,0,0,1-.4,2.31,3.7,3.7,0,0,1-1.23,1.74,3,3,0,0,1-1.89.65,6,6,0,0,1-1.11-.13,2.72,2.72,0,0,1-1.46-1v4.05Zm1.54-5.11a4.59,4.59,0,0,0,1.25.88,2.73,2.73,0,0,0,1,.18,1.8,1.8,0,0,0,1.67-.95,5,5,0,0,0,.53-2.43,4.29,4.29,0,0,0-.47-2.19,1.61,1.61,0,0,0-1.48-.8,2.51,2.51,0,0,0-1.26.35,4.66,4.66,0,0,0-1.24,1.05Z"/><path d="M185.2,29.73V21.25h1.54v1.59a3.37,3.37,0,0,1,1.14-1.32,2.67,2.67,0,0,1,1.52-.47,4.4,4.4,0,0,1,.49,0v1.44a2.13,2.13,0,0,0-.7-.13,2.25,2.25,0,0,0-1.34.43,4,4,0,0,0-1.11,1.3v5.6Z"/><path d="M195.13,29.93a4.3,4.3,0,0,1-2.11-.5,3.44,3.44,0,0,1-1.42-1.56,5.33,5.33,0,0,1-.52-2.38,5.66,5.66,0,0,1,.47-2.3,3.53,3.53,0,0,1,1.39-1.6,4.23,4.23,0,0,1,2.19-.54,4.3,4.3,0,0,1,2.11.5,3.44,3.44,0,0,1,1.42,1.56,5.33,5.33,0,0,1,.52,2.38,5.41,5.41,0,0,1-.49,2.31,3.43,3.43,0,0,1-1.38,1.59A4.2,4.2,0,0,1,195.13,29.93Zm0-1.16a2.09,2.09,0,0,0,1.79-.85,4,4,0,0,0,.64-2.43,4,4,0,0,0-.64-2.43,2.1,2.1,0,0,0-1.79-.85,2.07,2.07,0,0,0-1.77.85,4,4,0,0,0-.64,2.43,4,4,0,0,0,.64,2.43A2.07,2.07,0,0,0,195.12,28.77Z"/><path d="M200.73,29.73,204,25.48l-3.18-4.23h1.82l2.28,3,2.34-3h1.5l-3.09,4L209,29.73H207.2l-2.44-3.25-2.49,3.25Z"/><path d="M211.89,32.82l1.37-3.09L210,21.25h1.66l2.43,6.38,2.59-6.38h1.45l-4.62,11.57Z"/></g><g class="cls-2"><rect class="cls-6" x="189.12" y="102.01" width="52.78" height="32.08"/></g><g class="cls-52"><path d="M225.47,113.9v-.85a6.67,6.67,0,0,1,1.7-2.14l.55-.49a3.61,3.61,0,0,0,.83-1,2,2,0,0,0,.23-.92,1.2,1.2,0,0,0-.37-1,1.42,1.42,0,0,0-1-.35,2.84,2.84,0,0,0-.51.05,3.56,3.56,0,0,0-.53.17,5.92,5.92,0,0,0-.72.36v-.85a4.48,4.48,0,0,1,1.91-.45,2.27,2.27,0,0,1,1.64.57,1.9,1.9,0,0,1,.61,1.43,2.39,2.39,0,0,1-.25,1.05,5.29,5.29,0,0,1-1.22,1.32l-.37.32a6.46,6.46,0,0,0-.82.83,2.43,2.43,0,0,0-.52,1h3.15v.85Z"/><path d="M231,115.34l4-9.15h.79l-4,9.15Z"/><path d="M236.42,111.24v-.6h4v.6Z"/><path d="M224.56,129.5V123h-1.15v-.6l2.11-.18v7.29Z"/><path d="M229.27,129.44v-.9a4.61,4.61,0,0,0,1.63.41,1.57,1.57,0,0,0,1.12-.4,1.32,1.32,0,0,0,.44-1,1.47,1.47,0,0,0-.45-1.08,2.38,2.38,0,0,0-1.69-.44h-.38v-.65h.34a2.25,2.25,0,0,0,1.58-.42,1.35,1.35,0,0,0,.42-1,1.06,1.06,0,0,0-.33-.81,1.48,1.48,0,0,0-1-.3,3.82,3.82,0,0,0-1.58.41v-.84a4.6,4.6,0,0,1,1-.25,5.17,5.17,0,0,1,.68,0,2.58,2.58,0,0,1,1.69.46,1.5,1.5,0,0,1,.54,1.21,1.62,1.62,0,0,1-.16.75,1.83,1.83,0,0,1-.47.59,2.6,2.6,0,0,1-.88.48,2.92,2.92,0,0,1,1,.42,1.73,1.73,0,0,1,.52.65,2,2,0,0,1,.18.84,2.27,2.27,0,0,1-.58,1.52,2.46,2.46,0,0,1-1.95.67A7.63,7.63,0,0,1,229.27,129.44Z"/><path d="M236.3,125.76a2.27,2.27,0,0,1,.53-.54,2.2,2.2,0,0,1,.56-.26,2,2,0,0,1,.64-.1,2.13,2.13,0,0,1,1.12.3,1.86,1.86,0,0,1,.77.8,2.4,2.4,0,0,1,.27,1.14,2.85,2.85,0,0,1-.31,1.29,2.47,2.47,0,0,1-.82,1,2.31,2.31,0,0,1-1.27.34,2.09,2.09,0,0,1-1.92-1.05,5,5,0,0,1-.62-2.58,6.31,6.31,0,0,1,.3-2,3.16,3.16,0,0,1,.93-1.47,2.54,2.54,0,0,1,1.71-.54,4.54,4.54,0,0,1,.65,0,9.28,9.28,0,0,1,1,.23v.84a4.94,4.94,0,0,0-1.68-.39,1.47,1.47,0,0,0-1.4.82A4.5,4.5,0,0,0,236.3,125.76Zm2.92,1.53a1.84,1.84,0,0,0-.4-1.3,1.27,1.27,0,0,0-1-.43,1.71,1.71,0,0,0-1,.35,1.21,1.21,0,0,0-.5,1,2.72,2.72,0,0,0,.35,1.35,1.21,1.21,0,0,0,1.17.65,1.25,1.25,0,0,0,1-.43A1.83,1.83,0,0,0,239.22,127.29Z"/></g><g class="cls-2"><rect class="cls-6" x="189.12" y="176.5" width="52.78" height="32.08"/></g><g class="cls-53"><path d="M228.4,188.39v-2h-3.25v-.72l3.25-4.46h.91v4.4h1v.78h-1v2Zm-2.31-2.83h2.38v-3.22Z"/><path d="M231,189.84l4-9.16h.79l-4,9.16Z"/><path d="M236.42,185.74v-.6h4v.6Z"/><path d="M224.56,204v-6.5h-1.15v-.61l2.11-.18V204Z"/><path d="M229.47,204v-.86a3.75,3.75,0,0,0,1.37.29A1.43,1.43,0,0,0,232,203a1.77,1.77,0,0,0,.37-1.11,1.44,1.44,0,0,0-.55-1.19,2.61,2.61,0,0,0-1.69-.44l-.53,0v-3.52h3.65v.85h-2.81v1.9a3.15,3.15,0,0,1,2.24.69,2.3,2.3,0,0,1,.71,1.72,2.17,2.17,0,0,1-.64,1.59,2.74,2.74,0,0,1-2,.66A6,6,0,0,1,229.47,204Z"/><path d="M235.41,204v-.84a6.57,6.57,0,0,1,1.7-2.14l.55-.5a3.75,3.75,0,0,0,.83-1,2.06,2.06,0,0,0,.23-.93,1.23,1.23,0,0,0-.37-.95,1.4,1.4,0,0,0-1-.34,2.24,2.24,0,0,0-.52.05,3.05,3.05,0,0,0-.52.16,7.2,7.2,0,0,0-.73.37V197a4.36,4.36,0,0,1,1.92-.46,2.29,2.29,0,0,1,1.64.57,1.91,1.91,0,0,1,.6,1.43,2.39,2.39,0,0,1-.25,1,4.94,4.94,0,0,1-1.22,1.32l-.37.32a7.13,7.13,0,0,0-.81.83,2.38,2.38,0,0,0-.53,1.05h3.15V204Z"/></g><g class="cls-2"><rect class="cls-6" x="189.12" y="209.04" width="52.78" height="32.08"/></g><g class="cls-54"><path d="M225.85,221v-.86a3.73,3.73,0,0,0,1.37.28,1.4,1.4,0,0,0,1.16-.46,1.69,1.69,0,0,0,.37-1.11,1.48,1.48,0,0,0-.54-1.19,2.72,2.72,0,0,0-1.7-.44l-.53,0V213.7h3.65v.84h-2.81v1.9a3.15,3.15,0,0,1,2.24.7,2.28,2.28,0,0,1,.72,1.72,2.2,2.2,0,0,1-.65,1.59,2.74,2.74,0,0,1-2,.66A6,6,0,0,1,225.85,221Z"/><path d="M231,222.37l4-9.15h.79l-4,9.15Z"/><path d="M236.42,218.27v-.6h4v.6Z"/><path d="M224.56,236.53V230h-1.15v-.6l2.11-.18v7.29Z"/><path d="M230,232.79a2.27,2.27,0,0,1,.53-.54,2.05,2.05,0,0,1,.56-.26,1.91,1.91,0,0,1,.64-.1,2.16,2.16,0,0,1,1.12.3,1.92,1.92,0,0,1,.77.8,2.52,2.52,0,0,1,.26,1.14,2.84,2.84,0,0,1-.3,1.29,2.41,2.41,0,0,1-.83,1,2.28,2.28,0,0,1-1.26.34,2.09,2.09,0,0,1-1.92-1.05,4.93,4.93,0,0,1-.62-2.58,6.31,6.31,0,0,1,.3-2,3.16,3.16,0,0,1,.93-1.47,2.51,2.51,0,0,1,1.71-.54,4.63,4.63,0,0,1,.65,0,9.92,9.92,0,0,1,1,.23v.84a4.94,4.94,0,0,0-1.68-.39,1.47,1.47,0,0,0-1.4.82A4.5,4.5,0,0,0,230,232.79Zm2.92,1.53a1.91,1.91,0,0,0-.4-1.3,1.3,1.3,0,0,0-1-.43,1.73,1.73,0,0,0-1,.35,1.19,1.19,0,0,0-.5,1,2.82,2.82,0,0,0,.34,1.35,1.23,1.23,0,0,0,1.18.65,1.25,1.25,0,0,0,1-.43A1.83,1.83,0,0,0,232.9,234.32Z"/><path d="M237.74,236.71a2,2,0,0,1-1.39-.52,3.21,3.21,0,0,1-.86-1.41,6.58,6.58,0,0,1,0-3.73,3.12,3.12,0,0,1,.86-1.41,2.13,2.13,0,0,1,2.79,0,3.07,3.07,0,0,1,.86,1.41,6.54,6.54,0,0,1,0,3.72,3,3,0,0,1-.86,1.41A2,2,0,0,1,237.74,236.71Zm0-.73a1.2,1.2,0,0,0,1.15-.84,7.06,7.06,0,0,0,0-4.45,1.2,1.2,0,0,0-2.29,0,7.06,7.06,0,0,0,0,4.45A1.19,1.19,0,0,0,237.74,236Z"/></g><g class="cls-2"><rect class="cls-6" x="189.12" y="240.72" width="52.78" height="32.08"/></g><g class="cls-55"><path d="M226.36,248.87a2.47,2.47,0,0,1,.53-.54,2.2,2.2,0,0,1,.56-.26,2.25,2.25,0,0,1,.64-.1,2.13,2.13,0,0,1,1.12.3,1.86,1.86,0,0,1,.77.8,2.39,2.39,0,0,1,.26,1.14,2.92,2.92,0,0,1-.3,1.3,2.51,2.51,0,0,1-.82.94,2.25,2.25,0,0,1-1.27.34,2.09,2.09,0,0,1-1.92-1,5,5,0,0,1-.62-2.58,6.31,6.31,0,0,1,.3-1.95,3.16,3.16,0,0,1,.93-1.47,2.51,2.51,0,0,1,1.71-.54,4.62,4.62,0,0,1,.65.05,6.83,6.83,0,0,1,1,.22v.84a4.94,4.94,0,0,0-1.68-.39,1.49,1.49,0,0,0-1.4.82A4.5,4.5,0,0,0,226.36,248.87Zm2.92,1.53a1.87,1.87,0,0,0-.4-1.3,1.28,1.28,0,0,0-1-.43,1.78,1.78,0,0,0-1,.35,1.19,1.19,0,0,0-.5,1,2.72,2.72,0,0,0,.35,1.35,1.21,1.21,0,0,0,1.17.66,1.26,1.26,0,0,0,1-.44A1.83,1.83,0,0,0,229.28,250.4Z"/><path d="M231,254.05l4-9.15h.79l-4,9.15Z"/><path d="M236.42,250v-.6h4v.6Z"/><path d="M224.56,268.21V261.7h-1.15v-.6l2.11-.18v7.29Z"/><path d="M230,264.47a2.47,2.47,0,0,1,.53-.54,2.05,2.05,0,0,1,.56-.26,2.2,2.2,0,0,1,.64-.1,2.16,2.16,0,0,1,1.12.3,1.92,1.92,0,0,1,.77.8,2.52,2.52,0,0,1,.26,1.14,2.92,2.92,0,0,1-.3,1.3,2.45,2.45,0,0,1-.83.94,2.2,2.2,0,0,1-1.26.34,2.09,2.09,0,0,1-1.92-1.05,4.93,4.93,0,0,1-.62-2.58,6.31,6.31,0,0,1,.3-1.95,3.16,3.16,0,0,1,.93-1.47,2.51,2.51,0,0,1,1.71-.54c.22,0,.44,0,.65,0a9.92,9.92,0,0,1,1,.23v.84a4.94,4.94,0,0,0-1.68-.39,1.47,1.47,0,0,0-1.4.82A4.5,4.5,0,0,0,230,264.47ZM232.9,266a1.92,1.92,0,0,0-.4-1.3,1.3,1.3,0,0,0-1-.43,1.73,1.73,0,0,0-1,.35,1.19,1.19,0,0,0-.5,1,2.82,2.82,0,0,0,.34,1.35,1.24,1.24,0,0,0,1.18.66,1.26,1.26,0,0,0,1-.44A1.83,1.83,0,0,0,232.9,266Z"/><path d="M236.88,264.27a2.67,2.67,0,0,1-.87-.84,1.67,1.67,0,0,1-.19-.79,1.7,1.7,0,0,1,.59-1.32,2.35,2.35,0,0,1,1.58-.52,2.3,2.3,0,0,1,1.45.44,1.35,1.35,0,0,1,.55,1.12,1.77,1.77,0,0,1-.28.94,3.34,3.34,0,0,1-1.07,1,3.53,3.53,0,0,1,1.28.94,1.84,1.84,0,0,1,.36,1.13,1.88,1.88,0,0,1-.66,1.44,3,3,0,0,1-3.56,0,1.85,1.85,0,0,1-.62-1.38,2.27,2.27,0,0,1,.34-1.14A3.13,3.13,0,0,1,236.88,264.27Zm.52.39a2.8,2.8,0,0,0-.84.88,1.8,1.8,0,0,0-.15.73,1.29,1.29,0,0,0,.41,1,1.51,1.51,0,0,0,1,.38,1.65,1.65,0,0,0,1-.32,1,1,0,0,0,.42-.86,1.16,1.16,0,0,0-.22-.69,4,4,0,0,0-1-.73Zm.71-.69a2.94,2.94,0,0,0,.74-.7,1.32,1.32,0,0,0,.27-.78.83.83,0,0,0-.34-.69,1.32,1.32,0,0,0-.89-.28,1.34,1.34,0,0,0-.89.28.86.86,0,0,0-.31.66,1.09,1.09,0,0,0,.26.68A4.31,4.31,0,0,0,238.11,264Z"/></g><g class="cls-2"><rect class="cls-6" x="189.12" y="272.98" width="52.78" height="32.08"/></g><g class="cls-56"><path d="M226.14,284.87a6.4,6.4,0,0,1,.47-1.62c.21-.42.49-.93.86-1.53l2-3.17h-3.72v-.91h4.64v.91c-.62.92-1.14,1.74-1.54,2.47s-.75,1.43-1,2.07a7.23,7.23,0,0,0-.54,1.78Z"/><path d="M231,286.32l4-9.16h.79l-4,9.16Z"/><path d="M236.42,282.22v-.6h4v.6Z"/><path d="M224.56,300.47V294h-1.15v-.61l2.11-.18v7.29Z"/><path d="M229.76,300.47a6.4,6.4,0,0,1,.47-1.62c.21-.42.49-.93.86-1.53l2-3.17h-3.72v-.91H234v.91c-.63.92-1.14,1.74-1.54,2.47s-.75,1.42-1,2.07a7.23,7.23,0,0,0-.54,1.78Z"/><path d="M236.3,296.73a2.2,2.2,0,0,1,.53-.53,1.93,1.93,0,0,1,.56-.27,2.25,2.25,0,0,1,.64-.09,2.13,2.13,0,0,1,1.12.29,1.91,1.91,0,0,1,.77.8,2.4,2.4,0,0,1,.27,1.14,2.93,2.93,0,0,1-.31,1.3,2.44,2.44,0,0,1-.82.94,2.23,2.23,0,0,1-1.27.34,2.09,2.09,0,0,1-1.92-1,5,5,0,0,1-.62-2.58,6.36,6.36,0,0,1,.3-1.95,3.16,3.16,0,0,1,.93-1.47,2.54,2.54,0,0,1,1.71-.54,4.51,4.51,0,0,1,.65.05,7.24,7.24,0,0,1,1,.23v.84a4.94,4.94,0,0,0-1.68-.39,1.48,1.48,0,0,0-1.4.81A4.53,4.53,0,0,0,236.3,296.73Zm2.92,1.53a1.83,1.83,0,0,0-.4-1.29,1.28,1.28,0,0,0-1-.44,1.72,1.72,0,0,0-1,.36,1.18,1.18,0,0,0-.5,1,2.78,2.78,0,0,0,.35,1.36,1.22,1.22,0,0,0,1.17.65,1.26,1.26,0,0,0,1-.44A1.83,1.83,0,0,0,239.22,298.26Z"/></g><g class="cls-2"><rect class="cls-6" x="189.12" y="305.52" width="52.78" height="32.08"/></g><g class="cls-57"><path d="M226.94,313.47a2.74,2.74,0,0,1-.88-.85,1.77,1.77,0,0,1,.41-2.1,2.64,2.64,0,0,1,3-.08,1.38,1.38,0,0,1,.55,1.12,1.77,1.77,0,0,1-.28.94,3.46,3.46,0,0,1-1.07,1,3.39,3.39,0,0,1,1.27.94,1.78,1.78,0,0,1,.37,1.13,1.88,1.88,0,0,1-.66,1.44,3,3,0,0,1-3.56,0,1.85,1.85,0,0,1-.62-1.38,2.27,2.27,0,0,1,.34-1.14A3,3,0,0,1,226.94,313.47Zm.52.39a2.7,2.7,0,0,0-.84.88,1.8,1.8,0,0,0-.15.73,1.31,1.31,0,0,0,.41,1,1.5,1.5,0,0,0,1,.38,1.65,1.65,0,0,0,1-.32,1,1,0,0,0,.42-.86,1.1,1.1,0,0,0-.23-.69,3.66,3.66,0,0,0-1-.73Zm.7-.69a2.83,2.83,0,0,0,.75-.7,1.32,1.32,0,0,0,.27-.78.86.86,0,0,0-.34-.69,1.32,1.32,0,0,0-.89-.28,1.34,1.34,0,0,0-.89.28.86.86,0,0,0-.31.66,1,1,0,0,0,.25.67A4.4,4.4,0,0,0,228.16,313.17Z"/><path d="M231,318.85l4-9.15h.79l-4,9.15Z"/><path d="M236.42,314.76v-.6h4v.6Z"/><path d="M224.56,333V326.5h-1.15v-.6l2.11-.18V333Z"/><path d="M230.56,329.07a2.74,2.74,0,0,1-.88-.85,1.72,1.72,0,0,1-.18-.78,1.67,1.67,0,0,1,.59-1.32,2.62,2.62,0,0,1,3-.08,1.36,1.36,0,0,1,.56,1.12,1.78,1.78,0,0,1-.29.94,3.29,3.29,0,0,1-1.06,1,3.5,3.5,0,0,1,1.27.93,1.92,1.92,0,0,1-.29,2.58,2.49,2.49,0,0,1-1.79.61,2.54,2.54,0,0,1-1.78-.58,1.88,1.88,0,0,1-.61-1.38,2.18,2.18,0,0,1,.34-1.14A3,3,0,0,1,230.56,329.07Zm.52.39a2.7,2.7,0,0,0-.84.88,1.66,1.66,0,0,0-.16.73,1.31,1.31,0,0,0,.42,1,1.49,1.49,0,0,0,1,.37,1.61,1.61,0,0,0,1-.31,1,1,0,0,0,.42-.86,1.08,1.08,0,0,0-.22-.69,3.76,3.76,0,0,0-1-.73Zm.7-.69a3,3,0,0,0,.75-.7,1.4,1.4,0,0,0,.26-.78.85.85,0,0,0-.33-.69,1.32,1.32,0,0,0-.89-.28,1.34,1.34,0,0,0-.89.28.86.86,0,0,0-.31.66,1,1,0,0,0,.25.67A4.45,4.45,0,0,0,231.78,328.77Z"/><path d="M238.35,333V331h-3.26v-.73l3.26-4.45h.9v4.39h1V331h-1V333ZM236,330.17h2.38V327Z"/></g><g class="cls-2"><path class="cls-12" d="M242.28,118H365.37"/><line class="cls-12" x1="242.28" y1="160.27" x2="365.37" y2="160.27"/><line class="cls-12" x1="365.37" y1="192.54" x2="242.28" y2="192.54"/><line class="cls-12" x1="365.37" y1="225.07" x2="242.28" y2="225.07"/><polyline class="cls-12" points="242.31 256.46 330.81 256.46 330.81 369.2 544.43 369.2 544.43 159.49 622.6 159.49"/><polyline class="cls-12" points="242.59 289.11 317.29 289.11 317.29 380.84 556.33 380.84 556.33 192.69 622.51 192.69"/><polyline class="cls-12" points="242.61 321.83 305.35 321.83 305.35 391.48 569.01 391.48 569.01 223.64 622.14 223.64"/><ellipse class="cls-58" cx="277.23" cy="244.89" rx="17.04" ry="92.58"/><path d="M270.09,349.41a4.46,4.46,0,0,1-.79.34,4.52,4.52,0,0,1-.73.16,5.18,5.18,0,0,1-.81,0,3.21,3.21,0,0,1-2.68-1.08,4.26,4.26,0,0,1-.84-2.71,4.13,4.13,0,0,1,.88-2.73,3.27,3.27,0,0,1,2.69-1.06,9.78,9.78,0,0,1,2.27.31v1a10.77,10.77,0,0,0-1.51-.45,5.38,5.38,0,0,0-.78-.07,2.11,2.11,0,0,0-1.88.88,3.83,3.83,0,0,0-.58,2.16,3.3,3.3,0,0,0,.67,2.16,2.3,2.3,0,0,0,1.9.82,3.91,3.91,0,0,0,.68-.06,4.27,4.27,0,0,0,.68-.18,6.33,6.33,0,0,0,.83-.39Z"/><path d="M271.61,349.78v-7.71h1v3.4a2.87,2.87,0,0,1,.85-.82,2,2,0,0,1,1-.29,1.46,1.46,0,0,1,1.1.43A1.61,1.61,0,0,1,276,346v3.81h-1v-3.5a1.93,1.93,0,0,0-.09-.73.81.81,0,0,0-.28-.27.78.78,0,0,0-.37-.09,1.59,1.59,0,0,0-.77.22,2.71,2.71,0,0,0-.9.94v3.43Z"/><path d="M280.59,349.11a3.73,3.73,0,0,1-.86.6,1.94,1.94,0,0,1-.82.2,1.7,1.7,0,0,1-1.06-.38,1.25,1.25,0,0,1-.49-1.08,1.54,1.54,0,0,1,.68-1.29,3.69,3.69,0,0,1,2.18-.51h.23V346a1.14,1.14,0,0,0-.1-.56.64.64,0,0,0-.33-.27,1.26,1.26,0,0,0-.55-.1,3.62,3.62,0,0,0-1.65.47v-.8a5,5,0,0,1,1.85-.39,2.41,2.41,0,0,1,.87.15,1.33,1.33,0,0,1,.64.47,1.8,1.8,0,0,1,.23,1v2.4a1.5,1.5,0,0,0,.07.54.46.46,0,0,0,.18.21.45.45,0,0,0,.26.08l.19,0,.07.53a1.74,1.74,0,0,1-.73.16.83.83,0,0,1-.5-.18A1,1,0,0,1,280.59,349.11Zm-.14-.52v-1.38h-.31a2.58,2.58,0,0,0-1.3.29.87.87,0,0,0-.52.79.74.74,0,0,0,.26.59.85.85,0,0,0,.6.24,1.59,1.59,0,0,0,.62-.14A2.49,2.49,0,0,0,280.45,348.59Z"/><path d="M283.52,349.78V345.2h-.75v-.72h.75v-.63a2.43,2.43,0,0,1,.17-1,1.36,1.36,0,0,1,.55-.62,1.77,1.77,0,0,1,1-.25,4.29,4.29,0,0,1,1.1.16v.76a3.86,3.86,0,0,0-1-.2,1.3,1.3,0,0,0-.41.07.68.68,0,0,0-.3.26,1.68,1.68,0,0,0-.11.74v.74h1.32v.72h-1.32v4.58Z"/><path d="M287.2,349.78V345.2h-.76v-.72h.76v-.63a2.61,2.61,0,0,1,.16-1,1.49,1.49,0,0,1,.55-.62,1.8,1.8,0,0,1,1-.25,4.29,4.29,0,0,1,1.1.16v.76a3.93,3.93,0,0,0-1-.2,1.3,1.3,0,0,0-.41.07.59.59,0,0,0-.3.26,1.54,1.54,0,0,0-.11.74v.74h1.32v.72h-1.32v4.58Z"/><path d="M251.57,111.73v-7.22h2.18a2.14,2.14,0,0,1,1.68.54,1.89,1.89,0,0,1,.47,1.25,2.29,2.29,0,0,1-.63,1.52,2.42,2.42,0,0,1-.83.53l2.42,3.38H255.6l-2.06-3h-1v3Zm1-3.82h.33a2,2,0,0,0,1.54-.47,1.62,1.62,0,0,0,.4-1,1.13,1.13,0,0,0-.15-.59,1,1,0,0,0-.47-.39,2.46,2.46,0,0,0-1-.15h-.65Z"/><path d="M261.87,111.56a6,6,0,0,1-1.68.3,2.45,2.45,0,0,1-2-.84,2.89,2.89,0,0,1-.72-2,3.3,3.3,0,0,1,.31-1.42,2.28,2.28,0,0,1,.84-1,2.16,2.16,0,0,1,1.2-.33,1.85,1.85,0,0,1,1.49.66,3,3,0,0,1,.55,2v.29h-3.41a2.78,2.78,0,0,0,.31,1.09,1.57,1.57,0,0,0,.61.59,2,2,0,0,0,1,.21,3,3,0,0,0,.59-.05,5.25,5.25,0,0,0,.91-.27Zm-3.35-3h2.41a1.67,1.67,0,0,0-.32-1.14,1.08,1.08,0,0,0-.82-.34,1.12,1.12,0,0,0-.88.37A2,2,0,0,0,258.52,108.51Z"/><path d="M266.27,111.06a4,4,0,0,1-.86.6,2,2,0,0,1-.83.2,1.77,1.77,0,0,1-1.06-.37,1.28,1.28,0,0,1-.49-1.09,1.56,1.56,0,0,1,.68-1.29,3.72,3.72,0,0,1,2.19-.51h.23V108a1.12,1.12,0,0,0-.11-.56.78.78,0,0,0-.32-.27,1.29,1.29,0,0,0-.55-.1,3.66,3.66,0,0,0-1.66.47v-.79a4.87,4.87,0,0,1,1.85-.4,2.5,2.5,0,0,1,.88.15,1.42,1.42,0,0,1,.63.47,1.72,1.72,0,0,1,.24,1v2.4a1.57,1.57,0,0,0,.06.54.42.42,0,0,0,.18.21.48.48,0,0,0,.27.08l.18,0,.07.53a1.58,1.58,0,0,1-.72.16.89.89,0,0,1-.51-.17A1.06,1.06,0,0,1,266.27,111.06Zm-.14-.52v-1.37h-.32a2.54,2.54,0,0,0-1.29.29.9.9,0,0,0-.53.8.77.77,0,0,0,.26.58.85.85,0,0,0,.6.24,1.58,1.58,0,0,0,.63-.13A3.09,3.09,0,0,0,266.13,110.54Z"/><path d="M269,111.73V104h1v7.71Z"/><path d="M277.43,111.73a2.69,2.69,0,0,1-.77.13,1.52,1.52,0,0,1-1.13-.42,1.55,1.55,0,0,1-.42-1.17v-3.12h-.67v-.72h.67v-1l1-.09v1.05h1.38v.72h-1.38v2.94a1.2,1.2,0,0,0,.21.8.89.89,0,0,0,.69.24,2.23,2.23,0,0,0,.46-.06Z"/><path d="M278.81,111.73v-5.3h1v1a2.12,2.12,0,0,1,.71-.82,1.71,1.71,0,0,1,.95-.29l.31,0v.9a1.58,1.58,0,0,0-.44-.08,1.4,1.4,0,0,0-.84.27,2.34,2.34,0,0,0-.69.81v3.5Z"/><path d="M285.68,111.06a4,4,0,0,1-.86.6,2,2,0,0,1-.83.2,1.77,1.77,0,0,1-1.06-.37,1.28,1.28,0,0,1-.49-1.09,1.56,1.56,0,0,1,.68-1.29,3.72,3.72,0,0,1,2.19-.51h.23V108a1.12,1.12,0,0,0-.11-.56.78.78,0,0,0-.32-.27,1.29,1.29,0,0,0-.55-.1,3.66,3.66,0,0,0-1.66.47v-.79a4.83,4.83,0,0,1,1.85-.4,2.41,2.41,0,0,1,.87.15,1.39,1.39,0,0,1,.64.47,1.72,1.72,0,0,1,.24,1v2.4a1.57,1.57,0,0,0,.06.54.42.42,0,0,0,.18.21.47.47,0,0,0,.26.08l.19,0,.07.53a1.58,1.58,0,0,1-.72.16.89.89,0,0,1-.51-.17A1.06,1.06,0,0,1,285.68,111.06Zm-.14-.52v-1.37h-.32a2.6,2.6,0,0,0-1.3.29.91.91,0,0,0-.52.8.77.77,0,0,0,.26.58.85.85,0,0,0,.6.24,1.65,1.65,0,0,0,.63-.13A3.09,3.09,0,0,0,285.54,110.54Z"/><path d="M288.6,111.73v-4.58h-.75v-.72h.75v-.63a2.59,2.59,0,0,1,.17-1,1.42,1.42,0,0,1,.55-.62,1.79,1.79,0,0,1,1-.25,4.71,4.71,0,0,1,1.1.16v.77a3.5,3.5,0,0,0-1-.2,1.1,1.1,0,0,0-.41.07.54.54,0,0,0-.29.25,1.51,1.51,0,0,0-.12.74v.74h1.33v.72h-1.33v4.58Z"/><path d="M292.28,111.73v-4.58h-.75v-.72h.75v-.63a2.43,2.43,0,0,1,.17-1,1.36,1.36,0,0,1,.55-.62,1.77,1.77,0,0,1,1-.25,4.78,4.78,0,0,1,1.1.16v.77a3.5,3.5,0,0,0-1-.2,1.07,1.07,0,0,0-.41.07.6.6,0,0,0-.3.25,1.68,1.68,0,0,0-.11.74v.74h1.32v.72h-1.32v4.58Z"/><path d="M295.77,105.47v-1h1v1Zm0,6.26v-5.3h1v5.3Z"/><path d="M302.31,111.57a5.55,5.55,0,0,1-1.6.29,2.27,2.27,0,0,1-1.28-.39,2.42,2.42,0,0,1-.89-1,3.17,3.17,0,0,1-.29-1.41,3,3,0,0,1,.64-2,2.43,2.43,0,0,1,2-.78,6.48,6.48,0,0,1,1.37.17v.81a4.75,4.75,0,0,0-1.31-.24,1.37,1.37,0,0,0-1.21.6,2.5,2.5,0,0,0-.4,1.43,2.17,2.17,0,0,0,.46,1.45,1.44,1.44,0,0,0,1.18.55,3,3,0,0,0,1.34-.34Z"/><rect class="cls-4" x="1.09" y="54.69" width="64.06" height="88.68"/></g><g class="cls-59"><path d="M22.9,80V78.6a6.06,6.06,0,0,0,2.62.75,1.67,1.67,0,0,0,1.1-.36,1.1,1.1,0,0,0,.44-.9,1.16,1.16,0,0,0-.22-.66,2.31,2.31,0,0,0-1-.65l-.9-.38a3.85,3.85,0,0,1-1.51-1A2.07,2.07,0,0,1,22.94,74a2.23,2.23,0,0,1,.74-1.71,3.18,3.18,0,0,1,2.2-.68,10,10,0,0,1,1.77.2l.32.06v1.29a7.58,7.58,0,0,0-2.06-.39,1.65,1.65,0,0,0-1.12.32,1,1,0,0,0-.37.76.9.9,0,0,0,.25.61,2.42,2.42,0,0,0,.88.56l.74.31a4.29,4.29,0,0,1,1.9,1.25A2.36,2.36,0,0,1,28.6,78a2.31,2.31,0,0,1-.38,1.29,2.51,2.51,0,0,1-1.11.93,4.06,4.06,0,0,1-1.65.34A8.47,8.47,0,0,1,22.9,80Z"/><path d="M31.37,80.31V71.83h1.54v1.58A3.39,3.39,0,0,1,34,72.1a2.72,2.72,0,0,1,1.52-.47,2.77,2.77,0,0,1,.49,0v1.44a2.17,2.17,0,0,0-.7-.14,2.29,2.29,0,0,0-1.34.44,3.8,3.8,0,0,0-1.1,1.3v5.6Z"/><path d="M43.75,80.05a9.08,9.08,0,0,1-2.56.46,3.69,3.69,0,0,1-2.06-.62,4,4,0,0,1-1.41-1.61A5.17,5.17,0,0,1,37.24,76a4.79,4.79,0,0,1,1-3.13,3.88,3.88,0,0,1,3.19-1.26,10.21,10.21,0,0,1,2.2.27v1.29a7.94,7.94,0,0,0-2.1-.38,2.18,2.18,0,0,0-1.94,1A4,4,0,0,0,39,76.06a3.5,3.5,0,0,0,.73,2.32,2.33,2.33,0,0,0,1.89.88,4.88,4.88,0,0,0,2.15-.54Z"/></g><g class="cls-2"><rect class="cls-6" x="12.5" y="102.01" width="52.78" height="32.08"/></g><g class="cls-60"><path d="M47.41,121.73a6.16,6.16,0,0,1-1.68.29,2.49,2.49,0,0,1-2-.83,2.92,2.92,0,0,1-.72-2,3.31,3.31,0,0,1,.32-1.42,2.32,2.32,0,0,1,.83-1,2.17,2.17,0,0,1,1.21-.33,1.83,1.83,0,0,1,1.48.66,3,3,0,0,1,.56,2v.3H44a2.9,2.9,0,0,0,.31,1.08,1.72,1.72,0,0,0,.61.59,2,2,0,0,0,1,.22,2.88,2.88,0,0,0,.59-.06,5.25,5.25,0,0,0,.91-.27Zm-3.34-3.06h2.41a1.62,1.62,0,0,0-.32-1.13,1.09,1.09,0,0,0-.82-.35,1.15,1.15,0,0,0-.89.37A2,2,0,0,0,44.07,118.67Z"/><path d="M51.4,121.9a3.09,3.09,0,0,1-.77.12,1.45,1.45,0,0,1-1.56-1.59v-3.11h-.66v-.73h.66v-1l1-.09v1h1.38v.73H50v2.94a1.19,1.19,0,0,0,.21.79.87.87,0,0,0,.68.25,2.33,2.33,0,0,0,.47-.07Z"/><path d="M52.77,121.9v-7.71h1v3.39a2.76,2.76,0,0,1,.85-.82,2,2,0,0,1,1-.29,1.44,1.44,0,0,1,1.09.43,1.61,1.61,0,0,1,.42,1.18v3.82h-1v-3.5a1.67,1.67,0,0,0-.1-.73.64.64,0,0,0-.27-.27.75.75,0,0,0-.38-.1,1.62,1.62,0,0,0-.77.22,2.89,2.89,0,0,0-.89.94v3.44Z"/><path d="M58.1,121.9l2.4-3.64-2.28-3.59h1.21l1.73,2.73L63,114.67h1l-2.31,3.49L64,121.9H62.81L61,119l-1.9,2.87Z"/></g><g class="cls-2"><path class="cls-12" d="M108.74,118H65.66"/><rect class="cls-4" x="799.13" y="54.69" width="64.06" height="88.68"/></g><g class="cls-61"><path d="M826,80.31V78.72a3.44,3.44,0,0,1-1.17,1.34,3,3,0,0,1-1.65.45,2.84,2.84,0,0,1-2.42-1.16,4.88,4.88,0,0,1-.87-3,5.63,5.63,0,0,1,1-3.36,3.11,3.11,0,0,1,2.65-1.34,3.48,3.48,0,0,1,.93.12,3.2,3.2,0,0,1,.8.33,3.41,3.41,0,0,1,.76.71V68h1.54V80.31Zm0-6.47a4.75,4.75,0,0,0-1.26-.88,3,3,0,0,0-1-.17,1.79,1.79,0,0,0-1.67.94,4.9,4.9,0,0,0-.54,2.44,4.26,4.26,0,0,0,.48,2.19,1.61,1.61,0,0,0,1.49.79,2.54,2.54,0,0,0,1.27-.35,4.63,4.63,0,0,0,1.23-1Z"/><path d="M830.35,80V78.6a6.1,6.1,0,0,0,2.63.75,1.69,1.69,0,0,0,1.1-.36,1.13,1.13,0,0,0,.44-.9,1.16,1.16,0,0,0-.22-.66,2.38,2.38,0,0,0-1-.65l-.9-.38a4,4,0,0,1-1.52-1,2.07,2.07,0,0,1-.48-1.38,2.2,2.2,0,0,1,.75-1.71,3.17,3.17,0,0,1,2.2-.68,10,10,0,0,1,1.76.2l.32.06v1.29a7.58,7.58,0,0,0-2.06-.39,1.6,1.6,0,0,0-1.11.32,1,1,0,0,0-.37.76.85.85,0,0,0,.25.61A2.36,2.36,0,0,0,833,75l.75.31a4.29,4.29,0,0,1,1.9,1.25,2.43,2.43,0,0,1,.41,1.35,2.4,2.4,0,0,1-.38,1.29,2.54,2.54,0,0,1-1.12.93,4,4,0,0,1-1.64.34A8.53,8.53,0,0,1,830.35,80Z"/><path d="M842.6,80.31a4.73,4.73,0,0,1-1.23.2,2.47,2.47,0,0,1-1.81-.66,2.53,2.53,0,0,1-.67-1.88V73h-1.07V71.83h1.07V70.29l1.53-.15v1.69h2.22V73h-2.22v4.71a1.89,1.89,0,0,0,.35,1.27,1.38,1.38,0,0,0,1.09.39,3.79,3.79,0,0,0,.74-.1Z"/></g><g class="cls-2"><rect class="cls-6" x="799.01" y="102.01" width="52.78" height="32.08"/></g><g class="cls-62"><path d="M804.92,121.73a6.29,6.29,0,0,1-1.68.29,2.47,2.47,0,0,1-2-.83,2.92,2.92,0,0,1-.72-2,3.17,3.17,0,0,1,.32-1.42,2.25,2.25,0,0,1,.83-1,2.16,2.16,0,0,1,1.2-.33,1.85,1.85,0,0,1,1.49.66,3,3,0,0,1,.55,2v.3h-3.41a2.72,2.72,0,0,0,.31,1.08,1.57,1.57,0,0,0,.61.59,2,2,0,0,0,1,.22,3,3,0,0,0,.59-.06,5.25,5.25,0,0,0,.91-.27Zm-3.35-3.06H804a1.62,1.62,0,0,0-.32-1.13,1.06,1.06,0,0,0-.82-.35,1.12,1.12,0,0,0-.88.37A2,2,0,0,0,801.57,118.67Z"/><path d="M808.9,121.9a3,3,0,0,1-.77.12,1.53,1.53,0,0,1-1.13-.42,1.55,1.55,0,0,1-.42-1.17v-3.11h-.67v-.73h.67v-1l1-.09v1h1.39v.73h-1.39v2.94a1.19,1.19,0,0,0,.21.79.91.91,0,0,0,.69.25,2.24,2.24,0,0,0,.46-.07Z"/><path d="M810.28,121.9v-7.71h1v3.39a3,3,0,0,1,.85-.82,2,2,0,0,1,1-.29,1.46,1.46,0,0,1,1.1.43,1.61,1.61,0,0,1,.42,1.18v3.82h-1v-3.5a1.9,1.9,0,0,0-.09-.73.66.66,0,0,0-.28-.27.69.69,0,0,0-.37-.1,1.59,1.59,0,0,0-.77.22,2.8,2.8,0,0,0-.9.94v3.44Z"/><path d="M818,121.9v-3l-2.41-4.21h1.17l1.87,3.26,2-3.26h1L819,118.86v3Z"/></g><g class="cls-2"><path class="cls-12" d="M755.54,118h43.09"/><rect class="cls-13" x="799.13" y="1.11" width="64.06" height="44.55"/><rect class="cls-4" x="799.13" y="1.11" width="64.06" height="44.55"/></g><g class="cls-63"><path d="M815.75,29.73V17.4h1.54v5.44a4.4,4.4,0,0,1,1.37-1.32,3.07,3.07,0,0,1,1.61-.47,2.33,2.33,0,0,1,1.75.69,2.57,2.57,0,0,1,.67,1.89v6.1h-1.54v-5.6A2.91,2.91,0,0,0,821,23a1.16,1.16,0,0,0-.44-.44,1.27,1.27,0,0,0-.6-.15,2.69,2.69,0,0,0-1.23.35,4.66,4.66,0,0,0-1.44,1.51v5.49Z"/><path d="M829.06,29.93a4.3,4.3,0,0,1-2.11-.5,3.42,3.42,0,0,1-1.41-1.56,5.33,5.33,0,0,1-.53-2.38,5.51,5.51,0,0,1,.48-2.3,3.47,3.47,0,0,1,1.39-1.6,4.17,4.17,0,0,1,2.18-.54,4.3,4.3,0,0,1,2.11.5,3.39,3.39,0,0,1,1.42,1.56,5.33,5.33,0,0,1,.52,2.38,5.56,5.56,0,0,1-.48,2.31,3.51,3.51,0,0,1-1.39,1.59A4.17,4.17,0,0,1,829.06,29.93Zm0-1.16a2.07,2.07,0,0,0,1.78-.85,4,4,0,0,0,.64-2.43,4,4,0,0,0-.64-2.43,2.29,2.29,0,0,0-3.56,0,4,4,0,0,0-.64,2.43,4,4,0,0,0,.64,2.43A2.07,2.07,0,0,0,829.06,28.77Z"/><path d="M835.2,29.44V28a6.06,6.06,0,0,0,2.62.75,1.67,1.67,0,0,0,1.1-.36,1.13,1.13,0,0,0,.44-.9,1.11,1.11,0,0,0-.22-.65,2.23,2.23,0,0,0-1-.65l-.9-.39a3.86,3.86,0,0,1-1.52-1,2.08,2.08,0,0,1-.47-1.38,2.26,2.26,0,0,1,.74-1.71,3.18,3.18,0,0,1,2.2-.68,10,10,0,0,1,1.77.2l.32.06V22.6a7.58,7.58,0,0,0-2.06-.39,1.7,1.7,0,0,0-1.12.32,1,1,0,0,0-.37.76.92.92,0,0,0,.25.62,2.42,2.42,0,0,0,.88.55l.74.32a4.29,4.29,0,0,1,1.9,1.25,2.32,2.32,0,0,1,.41,1.34,2.27,2.27,0,0,1-.38,1.29,2.44,2.44,0,0,1-1.11.93,3.87,3.87,0,0,1-1.65.34A8.42,8.42,0,0,1,835.2,29.44Z"/><path d="M847.45,29.73a4.87,4.87,0,0,1-1.24.2,2.47,2.47,0,0,1-1.81-.66,2.51,2.51,0,0,1-.67-1.88v-5h-1.06V21.25h1.06V19.71l1.54-.15v1.69h2.22v1.16h-2.22v4.7a1.92,1.92,0,0,0,.34,1.28,1.44,1.44,0,0,0,1.1.38,3.22,3.22,0,0,0,.74-.1Z"/></g><g class="cls-2"><rect class="cls-13" x="1.09" y="1.11" width="64.06" height="44.55"/><rect class="cls-4" x="1.09" y="1.11" width="64.06" height="44.55"/></g><g class="cls-64"><path d="M17.71,29.73V17.4h1.54v5.44a4.37,4.37,0,0,1,1.36-1.32,3.13,3.13,0,0,1,1.62-.47,2.33,2.33,0,0,1,1.75.69,2.61,2.61,0,0,1,.67,1.89v6.1H23.11v-5.6A2.69,2.69,0,0,0,23,23a1.14,1.14,0,0,0-.43-.44,1.28,1.28,0,0,0-.61-.15,2.69,2.69,0,0,0-1.23.35,4.65,4.65,0,0,0-1.43,1.51v5.49Z"/><path d="M31,29.93a4.3,4.3,0,0,1-2.11-.5,3.44,3.44,0,0,1-1.42-1.56A5.33,5.33,0,0,1,27,25.49a5.51,5.51,0,0,1,.48-2.3,3.45,3.45,0,0,1,1.38-1.6A4.23,4.23,0,0,1,31,21.05a4.3,4.3,0,0,1,2.11.5,3.44,3.44,0,0,1,1.42,1.56,5.33,5.33,0,0,1,.52,2.38,5.56,5.56,0,0,1-.48,2.31,3.51,3.51,0,0,1-1.39,1.59A4.17,4.17,0,0,1,31,29.93Zm0-1.16a2.09,2.09,0,0,0,1.78-.85,4,4,0,0,0,.64-2.43,4,4,0,0,0-.64-2.43A2.1,2.1,0,0,0,31,22.21a2.07,2.07,0,0,0-1.78.85,4,4,0,0,0-.64,2.43,4,4,0,0,0,.64,2.43A2.07,2.07,0,0,0,31,28.77Z"/><path d="M37.16,29.44V28a6.06,6.06,0,0,0,2.62.75,1.69,1.69,0,0,0,1.1-.36,1.13,1.13,0,0,0,.44-.9,1.11,1.11,0,0,0-.22-.65,2.23,2.23,0,0,0-1-.65l-.9-.39a3.86,3.86,0,0,1-1.52-1,2,2,0,0,1-.47-1.38,2.22,2.22,0,0,1,.74-1.71,3.18,3.18,0,0,1,2.2-.68,10,10,0,0,1,1.77.2l.32.06V22.6a7.64,7.64,0,0,0-2.07-.39,1.67,1.67,0,0,0-1.11.32,1,1,0,0,0-.37.76.88.88,0,0,0,.25.62,2.34,2.34,0,0,0,.88.55l.74.32A4.29,4.29,0,0,1,42.45,26a2.4,2.4,0,0,1,.41,1.34,2.35,2.35,0,0,1-.38,1.29,2.42,2.42,0,0,1-1.12.93,3.82,3.82,0,0,1-1.64.34A8.42,8.42,0,0,1,37.16,29.44Z"/><path d="M49.41,29.73a4.87,4.87,0,0,1-1.24.2,2.47,2.47,0,0,1-1.81-.66,2.51,2.51,0,0,1-.67-1.88v-5H44.62V21.25h1.07V19.71l1.54-.15v1.69h2.22v1.16H47.23v4.7a1.92,1.92,0,0,0,.34,1.28,1.41,1.41,0,0,0,1.09.38,3.3,3.3,0,0,0,.75-.1Z"/></g><g class="cls-2"><path d="M513.5,95V87.76h1.93a3.76,3.76,0,0,1,1.48.21,1.39,1.39,0,0,1,.68.63,2.11,2.11,0,0,1,.24,1.06,2.63,2.63,0,0,1-.31,1.3,2.1,2.1,0,0,1-1,.86,3.85,3.85,0,0,1-1.54.3h-.44V95Zm1-3.65h.4a1.85,1.85,0,0,0,1.41-.46,1.65,1.65,0,0,0,.42-1.15,1.34,1.34,0,0,0-.13-.63,1,1,0,0,0-.44-.41,2.4,2.4,0,0,0-1.06-.16h-.6Z"/><path d="M519.06,95v-5.3h1v1a2.05,2.05,0,0,1,.71-.82,1.65,1.65,0,0,1,.95-.3l.31,0v.9a1.28,1.28,0,0,0-.44-.09,1.46,1.46,0,0,0-.84.28,2.58,2.58,0,0,0-.69.81V95Z"/><path d="M525.26,95.11A2.62,2.62,0,0,1,524,94.8a2.14,2.14,0,0,1-.89-1,3.3,3.3,0,0,1-.33-1.49,3.43,3.43,0,0,1,.3-1.43,2.19,2.19,0,0,1,.87-1,2.66,2.66,0,0,1,1.36-.34,2.74,2.74,0,0,1,1.32.31,2.14,2.14,0,0,1,.89,1,3.31,3.31,0,0,1,.32,1.48,3.45,3.45,0,0,1-.3,1.45,2.19,2.19,0,0,1-.87,1A2.63,2.63,0,0,1,525.26,95.11Zm0-.72a1.32,1.32,0,0,0,1.12-.54,3.14,3.14,0,0,0,0-3,1.31,1.31,0,0,0-1.12-.53,1.28,1.28,0,0,0-1.11.53,3.07,3.07,0,0,0,0,3A1.29,1.29,0,0,0,525.26,94.39Z"/><path d="M531.66,95a3.09,3.09,0,0,1-.77.12,1.44,1.44,0,0,1-1.56-1.59V90.41h-.66v-.72h.66v-1l1-.09v1.06h1.39v.72h-1.39v2.94a1.21,1.21,0,0,0,.22.8.86.86,0,0,0,.68.24,2.31,2.31,0,0,0,.47-.06Z"/><path d="M537,94.82a6.16,6.16,0,0,1-1.68.29,2.49,2.49,0,0,1-2-.83,2.92,2.92,0,0,1-.72-2,3.35,3.35,0,0,1,.32-1.42,2.32,2.32,0,0,1,.83-1,2.17,2.17,0,0,1,1.21-.33,1.83,1.83,0,0,1,1.48.66,3,3,0,0,1,.56,2v.29h-3.4a2.69,2.69,0,0,0,.3,1.08,1.75,1.75,0,0,0,.61.6,2,2,0,0,0,1,.21,4,4,0,0,0,.6,0,8,8,0,0,0,.9-.27Zm-3.34-3h2.41a1.67,1.67,0,0,0-.32-1.14,1.08,1.08,0,0,0-.82-.34,1.11,1.11,0,0,0-.89.37A1.89,1.89,0,0,0,533.64,91.77Z"/><path d="M542.25,94.83a5.49,5.49,0,0,1-1.59.28,2.35,2.35,0,0,1-1.29-.38,2.48,2.48,0,0,1-.89-1,3.23,3.23,0,0,1-.29-1.41,3,3,0,0,1,.64-2,2.43,2.43,0,0,1,2-.79,5.93,5.93,0,0,1,1.37.18v.8a4.75,4.75,0,0,0-1.31-.24,1.37,1.37,0,0,0-1.21.61,2.49,2.49,0,0,0-.4,1.42,2.17,2.17,0,0,0,.46,1.45,1.44,1.44,0,0,0,1.18.55,3.11,3.11,0,0,0,1.34-.33Z"/><path d="M546.09,95a3,3,0,0,1-.77.12,1.55,1.55,0,0,1-1.13-.41,1.59,1.59,0,0,1-.42-1.18V90.41h-.67v-.72h.67v-1l1-.09v1.06h1.39v.72h-1.39v2.94a1.22,1.22,0,0,0,.21.8.89.89,0,0,0,.69.24,2.23,2.23,0,0,0,.46-.06Z"/><path d="M551.42,94.82a6.29,6.29,0,0,1-1.68.29,2.47,2.47,0,0,1-2-.83,2.92,2.92,0,0,1-.72-2,3.34,3.34,0,0,1,.31-1.42,2.39,2.39,0,0,1,.83-1,2.22,2.22,0,0,1,1.21-.33,1.85,1.85,0,0,1,1.49.66,3,3,0,0,1,.55,2v.29H548a2.52,2.52,0,0,0,.31,1.08,1.6,1.6,0,0,0,.61.6,2,2,0,0,0,1,.21,4,4,0,0,0,.59,0,8,8,0,0,0,.91-.27Zm-3.35-3h2.41a1.67,1.67,0,0,0-.32-1.14,1.05,1.05,0,0,0-.82-.34,1.09,1.09,0,0,0-.88.37A2,2,0,0,0,548.07,91.77Z"/><path d="M556.44,95V94a2.18,2.18,0,0,1-.74.84,1.83,1.83,0,0,1-1,.28,1.78,1.78,0,0,1-1.51-.72,3.07,3.07,0,0,1-.54-1.89,3.52,3.52,0,0,1,.6-2.1,2,2,0,0,1,1.66-.84,2.2,2.2,0,0,1,.58.08,2.27,2.27,0,0,1,.5.2,2.37,2.37,0,0,1,.48.45v-3h1V95Zm0-4a2.76,2.76,0,0,0-.79-.55,1.61,1.61,0,0,0-.63-.11,1.11,1.11,0,0,0-1,.59,3,3,0,0,0-.34,1.52,2.65,2.65,0,0,0,.3,1.37,1,1,0,0,0,.93.5,1.65,1.65,0,0,0,.79-.22,3.08,3.08,0,0,0,.78-.66Z"/><path d="M562.5,95V87.28h1V95Z"/><path d="M565.39,88.72v-1h1v1Zm0,6.27v-5.3h1V95Z"/><path d="M568.28,95v-5.3h1v1a2.64,2.64,0,0,1,.85-.82,1.91,1.91,0,0,1,1-.3,1.48,1.48,0,0,1,1.09.43,1.63,1.63,0,0,1,.42,1.19V95h-1v-3.5a1.67,1.67,0,0,0-.1-.73.59.59,0,0,0-.27-.27.82.82,0,0,0-.37-.1,1.71,1.71,0,0,0-.77.22,2.8,2.8,0,0,0-.9.94V95Z"/><path d="M574.48,95V87.28h1v5l2.24-2.57h1l-2.15,2.47L579.17,95h-1.23l-2.49-2.72V95Z"/></g></g></svg>